<?xml version="1.0" encoding="UTF-8"?>
<svg width="250" height="250" version="1.1" viewBox="0 0 66.146 66.146" xml:space="preserve" xmlns="http://www.w3.org/2000/svg"><path d="m33.287 3.7647a1.4335 1.4335 0 0 0-1.3819 0.9088c-2.3817 6.0733-4.2359 16.746-5.1614 27.235-5.7434-10.837-12.705-15.162-19.708-16.416-0.00207-8.45e-4 -0.00369-0.0021-0.00576-3e-3v3e-3c-0.10136-0.01812-0.20159-0.07242-0.30293-0.08944a1.4335 1.4335 0 0 0-0.77608 2.7408c4.18 1.698 6.5415 5.2532 8.1503 9.9304 1.6088 4.6772 2.346 10.362 3.2255 15.758 0.8795 5.3958 1.8577 10.52 4.3593 14.229 2.4734 3.6669 6.7443 5.6177 12.795 4.4055 5.5091 0.61705 9.3572-1.7031 11.555-5.447 2.2386-3.8139 3.1398-8.891 3.9872-14.186 0.8474-5.2949 1.6097-10.815 3.2197-15.34 1.61-4.5248 3.9558-7.9537 8.0407-9.6131a1.4335 1.4335 0 0 0-0.77897-2.7408c-0.10042 0.01685-0.19962 0.07148-0.30005 0.08944v-3e-3c-0.0034 0.0014-0.0053 0.0044-0.0087 0.0058-7.2627 1.3006-14.469 5.9006-20.334 17.68-1.2264-10.916-3.3486-22.16-5.2566-28.15a1.4335 1.4335 0 0 0-1.3185-0.99824zm-0.10964 7.4291c1.7739 7.1689 3.6495 16.907 4.4517 26.517a1.4335 1.4335 0 0 0 2.7581 0.41834c4.0043-9.9517 8.5241-14.801 13.294-17.458-1.2733 1.7791-2.3742 3.7132-3.139 5.8625-1.7581 4.9409-2.5099 10.601-3.3496 15.848-0.83969 5.2467-1.8014 10.073-3.6294 13.188-1.828 3.1144-4.1681 4.6883-8.9985 4.0564a1.4335 1.4335 0 0 0-0.48181 0.02024c-5.4153 1.1424-8.0347-0.24199-10.02-3.1851-1.9852-2.9431-3.0383-7.761-3.9064-13.087-0.86808-5.3257-1.5933-11.142-3.3438-16.231-0.77901-2.2648-1.8941-4.3228-3.2226-6.1885 4.5445 2.5476 8.8627 7.076 12.732 16.171a1.4335 1.4335 0 0 0 2.7495-0.48181c0.51334-9.2605 2.2141-18.515 4.1055-25.449z" color="#000000" fill="none" stroke="#000" stroke-dasharray="2.86679, 8.60037" stroke-linecap="round" stroke-linejoin="round" stroke-width="2.8668" style="paint-order:markers fill stroke"/><g fill="#02a026" stroke="#000" stroke-linecap="round" stroke-linejoin="round"><path d="m33.184 5.3385c-5.5375 14.592-10.238 46.287 0.29619 45.008 10.444 1.4022 4.0416-30.936-0.29619-45.008z" stroke-width="2.905" style="paint-order:stroke fill markers"/><path d="m32.637 60.873c23.381 5.113 9.3632-36.606 28.05-44.196-10.934 1.8357-21.55 9.8199-28.05 44.196z" stroke-width="2.8668" style="paint-order:stroke fill markers"/><path d="m34.483 61.136c-23.381 5.113-9.3632-36.606-28.05-44.196 10.934 1.8357 21.55 9.8199 28.05 44.196z" stroke-width="2.8668" style="paint-order:stroke fill markers"/></g></svg>
