<?xml version="1.0" encoding="UTF-8"?>
<svg width="250" height="250" version="1.1" viewBox="0 0 66.146 66.146" xml:space="preserve" xmlns="http://www.w3.org/2000/svg"><g transform="matrix(1.1075 0 0 1.1075 -1.4834 -2.8402)"><g stroke="#090904" stroke-linecap="round" stroke-linejoin="round" stroke-width="2"><path d="m21.682 38.118c-10.49 1.0473-16.753-3.335-18.243 18.819 5.9021-6.1563 26.266-2.7022 18.243-18.819z" fill="#17d548" style="paint-order:markers fill stroke"/><path d="m43.095 32.126c10.281-2.3305 17.036 1.2475 15.787-20.922-5.0994 6.8359-25.733 5.9147-15.787 20.922z" fill="#17d548" style="paint-order:markers fill stroke"/><circle cx="28.565" cy="28.76" r="20.237" fill="#17214d" style="paint-order:markers fill stroke"/></g><path d="m9.6891 24.26c1.8987-8.6708 9.108-14.879 14.151-14.199 1.3806 4.5774-6.3027 3.7454-6.3561 6.9808 0.39043 2.4132 3.1469 2.3666 5.353 2.8636 1.0391 1.3853 1.5279 3.0469 3.0622 4.098 1.7092 0.77597 3.5577-0.37491 4.7156-1.7169 2.0385-1.1044 5.6003 1.2807 7.6953-1.7512 1.7371-2.9172-2.3886-4.2113 0.37801-7.5908 2.8211-0.37503 7.8552 7.6731 8.5724 9.588 5.7449 25.471-42.655 20.643-37.571 1.7278zm20.879-11.905c-0.52543-0.59748-2.0125-2.0792-1.112-2.7192 0.91398-0.08946 5.5408 0.43426 5.6224 1.3583-0.91035 0.80319-3.066 1.7783-4.5104 1.3609z" fill="#3c52a6" stroke-width=".26458"/></g></svg>
