<?xml version="1.0" encoding="UTF-8"?>
<svg width="250" height="250" version="1.1" viewBox="0 0 66.146 66.146" xml:space="preserve" xmlns="http://www.w3.org/2000/svg"><g transform="translate(43.335 -.405)"><g transform="translate(230.25 19.474)"><g transform="translate(-15.083 -22.147)"><g transform="translate(72.474 66.244)"><g transform="translate(-116.35 86.367)"><g transform="matrix(.70938 0 0 .70938 -51.381 -35.58)" stroke="#000" stroke-linecap="round" stroke-linejoin="round" stroke-width="2"><g><path d="m-214.9-133.87c7.6131 65.329-4.2928 49.126 30.375 63.585 34.141-13.078 23.545 1.9571 31.05-63.99" fill="#fee8ea" style="paint-order:markers fill stroke"/><path d="m-224.35-138.33c55.625 24.748 32.215 19.518 81.135-1.89-51.093-24.988-34.83-19.084-80.325-3.51-1.6073 1.1721-2.0653 3.3458-0.81 5.4z" fill="#fff" style="paint-order:markers fill stroke"/><path d="m-213.28-118.21c45.986 16.865 17.776 18.621 58.725 0.135l-2.025 24.435c-39.974 14.758-13.711 13.86-55.35-2.97z" fill="#fff" style="paint-order:markers fill stroke"/></g><path d="m-213.55-138.73c-11.229-1.419-2.3598-4.774 0.51552-5.7946 38.403-13.632 16.213-13.853 62.529 3.7696-45.073 18.104-16.63 19.012-63.585 2.43 38.156-12.92 21.529-13.993 57.915-0.81" fill="none" style="paint-order:markers fill stroke"/></g></g></g></g></g></g></svg>
