<?xml version="1.0" encoding="UTF-8"?>
<svg width="250" height="250" version="1.1" viewBox="0 0 66.146 66.146" xml:space="preserve" xmlns="http://www.w3.org/2000/svg"><g transform="translate(43.335 -.405)"><g transform="translate(230.25 19.474)"><g transform="translate(-15.083 -22.147)"><g transform="translate(72.474 66.244)"><g transform="translate(40.857 -.28638)"><g transform="translate(58.86,8.505)"><circle cx="-508.49" cy="-26.615" rx="28.304" ry="22.101" fill="#a25808" style="paint-order:stroke fill markers"/><g transform="matrix(1.0271 0 0 1.0271 8.4658 1.4741)"><g transform="translate(-.74351 -2.9741)" stroke-linecap="round" stroke-linejoin="round"><g stroke="#000"><path d="m-391.54-22.665c0.9326 4.107 6.5139 5.6708 26.157 7.9323-5.1533-4.3707-10.139-14.16-26.157-7.9323z" fill="#5b9a28" stroke-width="3" style="paint-order:stroke fill markers"/><path d="m-391.27-21.591c-10.243-8.2889-9.4074-3.4016-32.142-0.0079 7.3985 2.5847 16.668 10.201 32.142 0.0079z" fill="#5d982a" stroke-width="3.282" style="paint-order:stroke fill markers"/><circle cx="-393.73" cy="-36.726" r="16.845" fill="#cf3341" stroke-width="6.0848" style="paint-order:stroke fill markers"/></g><ellipse cx="-393.73" cy="-40.916" rx="15.526" ry="12.088" fill="none" stroke="#eb5f6c" stroke-width="4.7147" style="paint-order:stroke fill markers"/><path d="m-410.1-42.398c0.46525 16.3 36.518 15.143 32.073-2.7795-4.958-15.403-28.527-14.423-32.073 2.7795z" fill="#e4dee0" stroke="#000" stroke-width="3.8625" style="paint-order:stroke fill markers"/></g></g></g></g></g></g></g></g></svg>
