<?xml version="1.0" encoding="UTF-8"?>
<svg width="250" height="250" version="1.1" viewBox="0 0 66.146 66.146" xmlns="http://www.w3.org/2000/svg">
 <g transform="matrix(9.7726 0 0 9.7726 -728.6 -481.19)">
  <path d="m75.499 51.097c-0.35451 3.8699 0.93231 4.7248 4.5394 4.6238 0.1008-0.22314 0.63944-0.52906 0.67484-0.75924 0.42655-2.7737-0.49979-5.2623-4.5442-4.4335-0.19428 0.03981-0.46392 0.51522-0.67007 0.56903z" fill="#00920f" stroke="#000" stroke-linecap="round" stroke-linejoin="round" stroke-width=".4"/>
  <path d="m75.195 50.169c0.32765-0.38313 1.5559 0.72555 1.2994 1.0631s-1.627-0.67999-1.2994-1.0631z" fill="#482605" stroke="#000" stroke-linecap="round" stroke-linejoin="round" stroke-width=".4"/>
  <g fill="#97ff48">
   <circle cx="77.22" cy="53.376" r=".28688"/>
   <circle cx="78.232" cy="53.376" r=".28688"/>
   <circle cx="77.254" cy="54.354" r=".28688"/>
   <circle cx="78.216" cy="54.337" r=".28688"/>
  </g>
  <path d="m75.836 50.237c0.95626 0.81045 1.9156 1.7331 2.7844-0.6075-1.2975-0.18443-2.4229-0.18864-2.7844 0.6075z" fill="#0ca902" stroke="#000" stroke-linecap="round" stroke-linejoin="round" stroke-width=".4"/>
 </g>
</svg>
