<?xml version="1.0" encoding="UTF-8"?>
<svg width="250" height="250" version="1.1" viewBox="0 0 66.146 66.146" xml:space="preserve" xmlns="http://www.w3.org/2000/svg"><g transform="translate(43.335 -.405)"><path transform="matrix(.91077 0 0 .91077 322.22 13.165)" d="m-394.52 3.1659c9.6339-5.1328 14.979-7.6644 23.728-11.188 19.653 3.3284 34.72 4.473 35.251 6.3682 0.72813 14.692-1.4918 26.615-1.051 40.875-15.351 17.096-15.213 16.556-42.537 9.3074-22.533-8.8815-11.662-5.3227-15.391-45.362z" fill="#0f0ac3" stroke="#000" stroke-width="7"/><path transform="matrix(.91077 0 0 .91077 322.22 13.165)" d="m-394.5 3.1803c13.724 3.3886 29.109 4.6243 41.771 6.3464 1.5084 0.77696 2.1737 5.4127 2.0873 15.722 1.5016 29.422 0.36383 29.972 1.3327-15.869 1.6942-1.7358 13.248-12.376 13.8-11.092 0.72813 14.692-1.4918 26.615-1.051 40.875-15.351 17.096-15.213 16.556-42.537 9.3074-22.533-8.8815-11.674-5.2511-15.403-45.29z" fill="#9086f2" stroke-width=".26458"/><path transform="matrix(.91077 0 0 .91077 322.22 13.165)" d="m-394.44 3.121c1.6643-1.2774 22.284-10.95 23.674-11.152 10.91 1.8609 35.617 4.7564 35.249 6.3079-2.4235 1.7824-12.324 8.625-17.029 9.2659-16.879-1.2214-34.021-1.7011-41.893-4.4221z" fill="#c5c2f9" fill-opacity=".9308" stroke-width=".26458"/></g></svg>
