<?xml version="1.0" encoding="UTF-8"?>
<svg width="250" height="250" version="1.1" viewBox="0 0 66.146 66.146" xml:space="preserve" xmlns="http://www.w3.org/2000/svg"><g><g stroke="#000" stroke-width="2"><path d="m15.715 11.506c27.793-12.152 35.36 18.053 41.721 30.495 21.977 7.3856-14.384 39.155-49.017 4.9578-2.8818-5.1346-3.9663-14.879 7.2965-35.453z" fill="#f7630c"/><path d="m2.058 48.175c21.324-7.2024 11.873-17.143 13.938-28.905-2.2716 0.78926-5.2529-2.588-8.2319-4.8643-8.4904 2.3689-4.3743 18.191-5.7062 33.77z" fill="#13a10e"/><path d="m8.419 5.332c-2.5185-3.055-8.3859 0.84231-4.8643 4.7708l8.1384 8.0448c5.2201 4.232 8.0923-2.0998 4.9578-5.0514z" fill="#8e562e"/></g><g fill="#eba300"><circle cx="34.565" cy="50.561" r="2.8531" opacity=".79864"/><circle cx="42.563" cy="42.469" r="2.8531" opacity=".79864"/><circle cx="46.679" cy="52.385" r="2.8531" opacity=".79864"/></g></g></svg>
