<?xml version="1.0" encoding="UTF-8"?>
<svg width="250" height="250" version="1.1" viewBox="0 0 66.146 66.146" xml:space="preserve" xmlns="http://www.w3.org/2000/svg"><g transform="translate(43.335 -.405)"><g transform="translate(230.25 19.474)"><g transform="translate(-15.083 -22.147)"><g transform="translate(72.474 66.244)"><g transform="translate(40.857 -.28638)"><g transform="translate(58.86,8.505)"><g transform="translate(40.666 3.8184)"><g transform="translate(58.708 -2.5774)"><circle cx="-496.99" cy="-39.551" r="26.969" fill="#6e0049" stroke="#000" stroke-linecap="round" stroke-linejoin="round" stroke-width="6.6814" style="paint-order:stroke fill markers"/><path d="m-488.84-26.6c4.1315 7.19 4.6618 5.9415 15.817 9.0567l0.12762-3.0614c-6.2575-0.33146-8.2071-0.27995-12.756-5.9953z" fill="#ab6e41" stroke="#000" stroke-linecap="round" stroke-linejoin="round" stroke-width="2.6726" style="paint-order:stroke fill markers"/><g transform="matrix(1.2555 -.56754 .49541 1.4383 146.64 -265.54)"><path d="m-494.21-31.262c21.25 4.877 19.058-24.502-5.5002-23.748-18.083-1.0967-26.329 34.114 5.5002 23.748z" fill="#fff" stroke="#e12814" stroke-linecap="round" stroke-linejoin="round" stroke-width="3.9099" style="paint-order:stroke fill markers"/><path d="m-494.79-33.27c18.249 4.1882 16.366-21.042-4.7234-20.395-15.53-0.94184-22.611 29.296 4.7234 20.395z" fill="#e9910b" style="paint-order:stroke fill markers"/><g fill="#858f46" stroke="#fcd029" stroke-linecap="round" stroke-linejoin="round"><g stroke-width="2.5004"><circle cx="-509.16" cy="-42.174" r="2.0885" style="paint-order:stroke fill markers"/><circle cx="-504.19" cy="-48.093" r="2.0885" style="paint-order:stroke fill markers"/><circle cx="-505.34" cy="-36.351" r="2.0885" style="paint-order:stroke fill markers"/><circle cx="-500.57" cy="-41.697" r="2.0885" style="paint-order:stroke fill markers"/><circle cx="-496.65" cy="-48.57" r="2.0885" style="paint-order:stroke fill markers"/><circle cx="-495.89" cy="-36.161" r="2.0885" style="paint-order:stroke fill markers"/><circle cx="-492.84" cy="-42.652" r="2.0885" style="paint-order:stroke fill markers"/><circle cx="-488.44" cy="-36.924" r="2.0885" style="paint-order:stroke fill markers"/></g><circle cx="-490.02" cy="-48.523" r="1.581" stroke-width="1.8928" style="paint-order:stroke fill markers"/><circle cx="-486.06" cy="-42.747" r="1.581" stroke-width="1.8928" style="paint-order:stroke fill markers"/></g></g></g></g></g></g></g></g></g></g></svg>
