<?xml version="1.0" encoding="UTF-8"?>
<svg width="250" height="250" version="1.1" viewBox="0 0 66.146 66.146" xml:space="preserve" xmlns="http://www.w3.org/2000/svg"><g transform="translate(43.335 -.405)"><g transform="translate(230.25 19.474)"><g transform="translate(-15.083 -22.147)"><g transform="translate(72.474 66.244)"><g transform="translate(40.857 -.28638)"><g transform="translate(58.86,8.505)"><g transform="translate(40.666 3.8184)"><g transform="translate(58.708 -2.5774)"><g transform="translate(2.1956 4.1048)"><g transform="matrix(1.1326 0 0 1.1326 -42.424 -2.7587)"><g transform="matrix(.89511 0 0 1.1745 9.3378 -28.733)"><path d="m-460.58 11.076c45.657 0.16458 30.163-20.313 1.115-34.793-32.326 16.776-48.353 33.972-1.115 34.793z" fill="#9db840" stroke="#000" stroke-width="2"/><path d="m-459.53-22.52c2.9636 13.557 0.69149 30.429 18.832 31.109-65.163 9.7081-58.32-14.735-18.832-31.109z" fill="#648a16" style="paint-order:markers fill stroke"/><path d="m-463.15-14.03c2.3381 10.696 4.9556 22.815 19.267 23.351-60.588 7.8975-55.785-16.75-19.267-23.351z" fill="#4a7212" style="paint-order:markers fill stroke"/></g></g></g></g></g></g></g></g></g></g></g></svg>
