<?xml version="1.0" encoding="UTF-8"?>
<svg width="250" height="250" version="1.1" viewBox="0 0 66.146 66.146" xml:space="preserve" xmlns="http://www.w3.org/2000/svg"><g transform="matrix(2.7183 0 0 2.7183 -48.449 -49.622)"><g transform="matrix(2.7172 0 0 2.7172 -38.96 -51.112)"><g><path d="m23.42 33.232c1.1335 1.0673 2.7639 1.0212 4.1002-1e-6l0.63268-6.1929c-0.82814-1.2279-4.6105-1.3175-5.3777 3e-6z" fill="#a6a6a6" stroke="#000" stroke-linecap="round" stroke-linejoin="round" stroke-width=".73576" style="paint-order:stroke fill markers"/><path d="m23.201 30.008 0.3285 3.1512c1.4885 1.1707 2.6744 0.64729 3.8447 0.0365l0.365-3.285" fill="#e5e5e5" style="paint-order:stroke fill markers"/><ellipse cx="25.476" cy="29.935" rx="2.2689" ry=".86968" fill="#fff" style="paint-order:stroke fill markers"/></g><path d="m22.946 27.489 0.62051 5.6819c1.1284 0.9783 2.3921 0.87354 3.7474 0.0365l0.71784-5.8279" fill="none" stroke="#ccc" stroke-linecap="round" stroke-linejoin="round" stroke-width=".2943" style="paint-order:stroke fill markers"/><ellipse cx="25.464" cy="27.27" rx="2.4724" ry=".97588" fill="none" stroke="#f2f2f2" stroke-linecap="round" stroke-linejoin="round" stroke-width=".46058" style="paint-order:stroke fill markers"/></g></g></svg>
