<?xml version="1.0" encoding="UTF-8"?>
<svg width="250" height="250" version="1.1" viewBox="0 0 66.146 66.146" xml:space="preserve" xmlns="http://www.w3.org/2000/svg"><g transform="matrix(2.7183 0 0 2.7183 -48.449 -49.622)"><g transform="matrix(2.6708 0 0 2.6708 -53.335 -58.353)"><g transform="matrix(1.7703 1.5497 -1.5497 1.7703 29.26 -71.788)" stroke-linecap="round" stroke-linejoin="round" stroke-width=".27548"><path d="m28.083 33.166c0.40715 1.0413 1.3454 0.74729 1.9315 0.20044 1.0732 0.76151 1.8965 0.40178 1.9999-0.48744-0.52794-0.93928-1.2602-0.8874-2.0135-0.15944-1.2112-0.76956-1.7214-0.33788-1.9179 0.44644z" fill="#d48c00" stroke="#000" style="paint-order:stroke fill markers"/><g fill="none" stroke="#8e562e"><path d="m28.411 33.166 0.34166-0.02733" style="paint-order:stroke fill markers"/><path d="m29.931 33.043 0.34166-0.02733" style="paint-order:stroke fill markers"/><path d="m31.265 32.963 0.34166-0.02733" style="paint-order:stroke fill markers"/><path d="m30.658 32.612 0.34166-0.02733" style="paint-order:stroke fill markers"/><path d="m29.108 32.752 0.34166-0.02733" style="paint-order:stroke fill markers"/><path d="m29.129 33.427 0.34166-0.02733" style="paint-order:stroke fill markers"/><path d="m30.694 33.352 0.34166-0.02733" style="paint-order:stroke fill markers"/></g></g></g></g></svg>
