<?xml version="1.0" encoding="UTF-8" standalone="no"?>
<svg
   width="250"
   height="250"
   version="1.1"
   viewBox="0 0 66.146 66.146"
   xml:space="preserve"
   id="svg30"
   sodipodi:docname="pink matcha.svg"
   inkscape:version="1.2-rc (6364d40632, 2022-05-08)"
   xmlns:inkscape="http://www.inkscape.org/namespaces/inkscape"
   xmlns:sodipodi="http://sodipodi.sourceforge.net/DTD/sodipodi-0.dtd"
   xmlns="http://www.w3.org/2000/svg"
   xmlns:svg="http://www.w3.org/2000/svg"><defs
     id="defs34" /><sodipodi:namedview
     id="namedview32"
     pagecolor="#505050"
     bordercolor="#eeeeee"
     borderopacity="1"
     inkscape:showpageshadow="0"
     inkscape:pageopacity="0"
     inkscape:pagecheckerboard="0"
     inkscape:deskcolor="#505050"
     showgrid="false"
     inkscape:zoom="2.2"
     inkscape:cx="115.22727"
     inkscape:cy="125"
     inkscape:window-width="1366"
     inkscape:window-height="705"
     inkscape:window-x="546"
     inkscape:window-y="1115"
     inkscape:window-maximized="1"
     inkscape:current-layer="g28" /><g
     transform="translate(43.335 -.405)"
     id="g28"><path
       d="m-460.58 11.076c45.657 0.16458 30.163-20.313 1.115-34.793-32.326 16.776-48.353 33.972-1.115 34.793z"
       fill="#9db840"
       stroke="#000"
       stroke-width="2"
       id="path2"
       transform="matrix(1.0138016,0,0,1.3302387,457.0796,41.833724)"
       style="fill:#da71be;fill-opacity:1" /><path
       d="m-459.53-22.52c2.9636 13.557 0.69149 30.429 18.832 31.109-65.163 9.7081-58.32-14.735-18.832-31.109z"
       fill="#648a16"
       style="paint-order:markers fill stroke;fill:#e921c7;fill-opacity:1"
       id="path4"
       transform="matrix(1.0138016,0,0,1.3302387,457.0796,41.833724)" /><path
       d="m-463.15-14.03c2.3381 10.696 4.9556 22.815 19.267 23.351-60.588 7.8975-55.785-16.75-19.267-23.351z"
       fill="#4a7212"
       style="paint-order:markers fill stroke;fill:#cb02a3;fill-opacity:1"
       id="path6"
       transform="matrix(1.0138016,0,0,1.3302387,457.0796,41.833724)" /></g></svg>
