<?xml version="1.0" encoding="UTF-8"?>
<svg width="250" height="250" version="1.1" viewBox="0 0 66.146 66.146" xml:space="preserve" xmlns="http://www.w3.org/2000/svg"><g transform="matrix(.95088 0 0 .95088 1.3502 2.4194)" stroke-linecap="round" stroke-linejoin="round"><path d="m30.308 60.43c37.592 9.2391 38.295-0.011717 29.934-30.308-12.656-67.139-95.719 19.053-29.934 30.308z" fill="#f03a17" stroke="#090904" stroke-width="2" style="paint-order:markers fill stroke"/><g fill="#17d548" stroke="#af0d1a" stroke-width="4"><path d="m24.742 49.111 2.666 2.6192" style="paint-order:markers fill stroke"/><path d="m24.672 36.95 2.666 2.6192" style="paint-order:markers fill stroke"/><path d="m36.927 36.95 2.666 2.6192" style="paint-order:markers fill stroke"/><path d="m36.693 24.181 2.666 2.6192" style="paint-order:markers fill stroke"/><path d="m49.087 24.649 2.666 2.6192" style="paint-order:markers fill stroke"/><path d="m49.181 36.856 2.666 2.6192" style="paint-order:markers fill stroke"/><path d="m49.087 49.111 2.666 2.6192" style="paint-order:markers fill stroke"/><path d="m36.833 49.158 2.666 2.6192" style="paint-order:markers fill stroke"/></g><path d="m1.8709 31.805c-0.90772-19.367 12.339-5.7891 7.8123-22.441 15.564 4.2193 5.8028-8.9832 21.748-8.6155 0.92023 14.633-3.8575 12.984 8.6061 13.096-0.63554 8.4707-5.9292 11.852-16.09 9.9157 1.6732 8.9699-0.5132 15.226-10.103 16.277-0.69385-10.897 2.7731-8.1057-11.974-8.2319z" fill="#107c10" stroke="#000" stroke-width="2" style="paint-order:markers fill stroke"/></g></svg>
