<?xml version="1.0" encoding="UTF-8"?>
<svg width="250" height="250" version="1.1" viewBox="0 0 66.146 66.146" xml:space="preserve" xmlns="http://www.w3.org/2000/svg"><g transform="matrix(.88191 0 0 .88191 23.52 -74.533)" stroke-linecap="round" stroke-linejoin="round"><path d="m18.421 120.11c18.332 0.0603 22.815 8.9827 24.938 19.415-12.297 0.60622-19.976-6.9986-28.173-13.681z" fill="#344f1b" stroke="#090904" stroke-width="2" style="paint-order:markers fill stroke"/><path d="m10.55 115.4c2.3536-18.181 11.767-21.511 22.383-22.313 3.3561 15.641-9.4431 18.943-17.098 26.24z" fill="#344f1b" stroke="#090904" stroke-width="2" style="paint-order:markers fill stroke"/><g transform="translate(74.927 -11.492)"><path d="m-67.928 99.184c-9.8621 9.3735-11.978 19.542-4.7348 30.603-8.4108-5.9142-15.069-7.6714-27.714 0.18966 10.27 8.5345 16.741 8.6992 24.58 7.783-10.513 2.9746-20.973 19.554-18.733 28.117 30.206 1.7989 22.104-16.35 26.443-25.24 7.0302 10.877 3.9486 24.527 30.106 23.261-1.4258-11.835-13.652-23.468-20.687-25.447 14.349 2.3132 23.966-1.8913 29.254-13.492-13.915-8.699-27.687 1.1807-34.465 6.9781 8.9433-13.662 3.8667-23.506-4.0496-32.753z" fill="#cfcba5" stroke="#000" stroke-width="2" style="paint-order:markers fill stroke"/><circle cx="-68.043" cy="135.07" r="5.8946" fill="#c1a023" stroke="#b9b952" stroke-dasharray="2.5, 2.5" stroke-width="5" style="paint-order:markers fill stroke"/></g></g></svg>
