<?xml version="1.0" encoding="UTF-8"?>
<svg width="250" height="250" version="1.1" viewBox="0 0 66.146 66.146" xml:space="preserve" xmlns="http://www.w3.org/2000/svg"><g transform="matrix(2.7183 0 0 2.7183 -48.449 -49.622)"><g transform="matrix(2.6708 0 0 2.6708 -53.335 -58.353)"><path d="m29.924 31.336c-0.89148-0.29132-1.6909 0.66902-1.1752 1.4382-0.87562 0.46412-0.61795 1.6219 0.15893 1.8286-0.32826 0.93479 0.72843 1.7624 1.4978 1.1427 0.24493 0.87409 1.0259 1.3984 1.6771 0.71271 0.40975 0.39566 1.0301 0.38764 1.3996 0.02528 1.5706 0.94456 2.2167-1.5163 0.74807-1.634 0.16373-0.3754 0.0586-0.83686-0.19562-1.0963 0.62682-0.68438 0.01151-1.6293-0.67412-1.6547 0.34137-0.98469-0.8276-1.8062-1.5712-1.0745-0.52925-1.0315-1.8011-0.53436-1.8653 0.31196z" fill="#4e257f" stroke="#000" stroke-linecap="round" stroke-linejoin="round" stroke-width=".73576" style="paint-order:stroke fill markers"/><path d="m28.628 32.052 0.31634-0.54751c-0.96068-0.54821-0.74267-0.84854-0.97334-1.4844-0.06563-0.66071-0.74221-0.43325-0.55967 0.02433 0.1011 0.94918 0.37858 1.4749 1.2167 2.0075z" fill="#13a10e" stroke="#000" stroke-linecap="round" stroke-linejoin="round" stroke-width=".73576" style="paint-order:stroke fill markers"/><ellipse cx="33.044" cy="34.157" rx=".39624" ry=".41367" fill="#8764b8" style="paint-order:stroke fill markers"/><ellipse cx="32.935" cy="32.648" rx=".39624" ry=".41367" fill="#8764b8" style="paint-order:stroke fill markers"/><path d="m30.048 31.373c-1.7112-0.6081-1.8815 1.7112-0.55549 1.7534 0.10172 0.04417 0.16805 0.22514 0.24714 0.30455-0.24662 1.0143 0.69632 2.0098 1.479 1.1638 0.64428 0.81072 1.6659 0.17202 1.6874-0.56804 2.8e-5 -0.34057-0.17059-0.65634-0.44979-0.83248 0.09775-0.21582 0.11846-0.40564 0.09638-0.61614 1.4311-0.6042 0.39478-2.8317-0.71062-1.6362-0.55062-1.1474-1.802-0.42499-1.794 0.43116z" fill="#5c2e91" style="paint-order:stroke fill markers"/><g fill="#8764b8"><ellipse cx="30.618" cy="31.127" rx=".39624" ry=".41367" style="paint-order:stroke fill markers"/><ellipse cx="32.278" cy="31.383" rx=".39624" ry=".41367" style="paint-order:stroke fill markers"/><ellipse cx="30.331" cy="32.49" rx=".39624" ry=".41367" style="paint-order:stroke fill markers"/><ellipse cx="31.767" cy="32.478" rx=".39624" ry=".41367" style="paint-order:stroke fill markers"/><ellipse cx="30.367" cy="33.865" rx=".39624" ry=".41367" style="paint-order:stroke fill markers"/><ellipse cx="31.681" cy="33.865" rx=".39624" ry=".41367" style="paint-order:stroke fill markers"/><ellipse cx="31.207" cy="35.519" rx=".39624" ry=".41367" style="paint-order:stroke fill markers"/><ellipse cx="32.521" cy="35.446" rx=".39624" ry=".41367" style="paint-order:stroke fill markers"/><ellipse cx="33.823" cy="35.483" rx=".39624" ry=".41367" style="paint-order:stroke fill markers"/><ellipse cx="29.455" cy="34.729" rx=".39624" ry=".41367" style="paint-order:stroke fill markers"/><ellipse cx="28.968" cy="33.293" rx=".39624" ry=".41367" style="paint-order:stroke fill markers"/><ellipse cx="29.345" cy="32.028" rx=".39624" ry=".41367" style="paint-order:stroke fill markers"/></g></g></g></svg>
