<?xml version="1.0" encoding="UTF-8"?>
<svg width="250" height="250" version="1.1" viewBox="0 0 66.146 66.146" xml:space="preserve" xmlns="http://www.w3.org/2000/svg"><g transform="matrix(2.1363 0 0 2.1363 -39.231 -35.198)"><g stroke="#000"><path d="m24.875 33.139-0.08552-13.776c-0.14908-2.5847 2.4972-2.4029 2.2451-0.09354 0.34219 4.912 1.9117 11.215 10.774 15.059l-1.7306 1.8709c-3.1669-1.9796-7.6797-5.2083-9.043-8.5106l0.13229 5.4502z" fill="#13a10e"/><circle cx="40.711" cy="39.218" r="6.4492" fill="#af0d1a" stroke-width="1.4043"/><path d="m27.247 19.351c-1.0009 8.1596 3.397 12.955 18.569 11.038-0.30644-9.3524-7.8208-11.754-18.569-11.038z" fill="#107c10" stroke-width="1.4043"/></g><ellipse cx="43.259" cy="37.108" rx="2.0395" ry="1.9844" fill="#e84757"/><circle cx="26.558" cy="39.125" r="6.4492" fill="#af0d1a" stroke="#000" stroke-width="1.4043"/><ellipse cx="28.63" cy="37.306" rx="2.0395" ry="1.9844" fill="#e84757"/></g></svg>
