<?xml version="1.0" encoding="UTF-8"?>
<svg width="381.73mm" height="381.73mm" version="1.1" viewBox="0 0 381.73 381.73" xmlns="http://www.w3.org/2000/svg" xmlns:cc="http://creativecommons.org/ns#" xmlns:dc="http://purl.org/dc/elements/1.1/" xmlns:rdf="http://www.w3.org/1999/02/22-rdf-syntax-ns#">
 <metadata>
  <rdf:RDF>
   <cc:Work rdf:about="">
    <dc:format>image/svg+xml</dc:format>
    <dc:type rdf:resource="http://purl.org/dc/dcmitype/StillImage"/>
   </cc:Work>
  </rdf:RDF>
 </metadata>
 <g transform="translate(155.01 42.029)">
  <rect x="-155.01" y="-42.024" width="381.72" height="381.72" fill="#dc468e" style="paint-order:markers fill stroke"/>
  <path transform="matrix(4.3769 0 0 -4.3769 -458.37 1219.9)" d="m106.89 204.41a40.747 40.747 0 0 1 46.318 34.256 40.747 40.747 0 0 1-34.232 46.336 40.747 40.747 0 0 1-46.354-34.207 40.747 40.747 0 0 1 34.182-46.373" fill="#de5596" stroke="#dc468e" stroke-linecap="round" stroke-linejoin="round" stroke-width="5.7118" style="paint-order:markers stroke fill"/>
  <path transform="matrix(3.5828 0 0 -3.5828 -369.49 1026.2)" d="m106.89 204.41a40.747 40.747 0 0 1 46.318 34.256 40.747 40.747 0 0 1-34.232 46.336 40.747 40.747 0 0 1-46.354-34.207 40.747 40.747 0 0 1 34.182-46.373" fill="#331b62" stroke="#fd94c5" stroke-linecap="round" stroke-linejoin="round" stroke-width="8.3732" style="paint-order:markers stroke fill"/>
  <g transform="matrix(.93643 0 0 .93643 267.55 -5732.8)">
   <path d="m-207.78 6152.8c-3.9165 2.9417-9.6619 12.396-15.414 20.823-38.667-8.1318-78.328 17.78-69.149 35.34 3.9574 5.0135-4.2918 14.538-19.387 61.013-0.45147 23.521 30.428 46.453 54.017 37.71l45.134-36.535c19.56 2.0652 31.803-14.418 26.737-29.505 6.7297-29.454-4.5559-43.915-15.576-54.914 4.0413-6.4357 15.195-16.833 14.649-22.066-0.54627-5.233-17.094-14.807-21.01-11.865z" fill="#de5596" stroke="#dc468e" stroke-width="4.3058"/>
   <path transform="matrix(1.0679 0 0 1.0679 -285.72 6122)" d="m61.907 130.47c-41.759 43.586-84.341 9.8174-54.23-40.734 20.681-84.214 124.56 15.561 54.23 40.734z" fill="#331b62" style="paint-order:normal"/>
   <path d="m-207.21 6161.8c-5.155 6.8674-8.6488 12.269-13.984 20.085-28.047-14.113-77.649 13.853-61.808 28.414-3.4191 13.483-14.843 41.389-20.981 58.106 0.44928 22.388 23.223 37.934 43.286 31.182l43.6-36.155c15.987 2.4025 26.627-12.561 22.851-25.218 7.3317-28.076-9.9672-41.661-16.478-49.648 5.401-7.589 10.322-13.785 15.466-21.255 1.6308-4.0505-10.527-10.446-11.953-5.5113zm-18.978 28.851-4e-3 0.031c-0.042 0.2057 0.19539 0.3843 0.30296 0.5962 7.5816 12.05 20.194 11.794 24.63 22.774-2.8771 22.098 4.8065 44.991-20.732 43.127-34.745 38.472-31.595 0.5637-62.249-2.5765l9.7985-31.116c9.4154 10.925 24.965 19.041 38.379 24.834 0 0-44.439-33.906-35.67-43.014 4.7004-3.7593 28.985-29.417 45.544-14.656z" fill="#ffbcdb" stroke="#fd94c5" stroke-width="3.6801"/>
   <path d="m-291.87 6271.8a4.4059 4.4059 0 0 1 5.0082 3.704 4.4059 4.4059 0 0 1-3.7014 5.0102 4.4059 4.4059 0 0 1-5.0122-3.6987 4.4059 4.4059 0 0 1 3.696-5.0141m25.71-0.4426a4.4059 4.4059 0 0 1 5.0082 3.7041 4.4059 4.4059 0 0 1-3.7014 5.0102 4.4059 4.4059 0 0 1-5.0122-3.6986 4.4059 4.4059 0 0 1 3.696-5.0143m-15.264 8.2231a4.4059 4.4059 0 0 1 5.0082 3.7041 4.4059 4.4059 0 0 1-3.7014 5.0102 4.4059 4.4059 0 0 1-5.0122-3.6987 4.4059 4.4059 0 0 1 3.696-5.0142m14.957 2.3724a6.6088 6.6088 0 0 1 7.5123 5.5561 6.6088 6.6088 0 0 1-5.5521 7.5154 6.6088 6.6088 0 0 1-7.5183-5.5481 6.6088 6.6088 0 0 1 5.544-7.5212m-13.057-18.653a6.6088 6.6088 0 0 1 7.5123 5.556 6.6088 6.6088 0 0 1-5.5521 7.5154 6.6088 6.6088 0 0 1-7.5183-5.5481 6.6088 6.6088 0 0 1 5.544-7.5213m-13.465-3.4042a4.4059 4.4059 0 0 1 5.0082 3.7042 4.4059 4.4059 0 0 1-3.7014 5.0101 4.4059 4.4059 0 0 1-5.0122-3.6987 4.4059 4.4059 0 0 1 3.696-5.0141" fill="#dc468e" style="paint-order:markers stroke fill"/>
  </g>
  <g transform="matrix(.8887 0 0 .8887 607.56 -5144.7)">
   <path d="m-741.74 5997.1c-0.3941 9.7432-1.8295 34.473 0.3837 41.105 22.262 3.2031 28.129 2.0265 31.925-13.122 7.7483 20.172 31.213 17.679 37.208 0.4439 1.2117-5.3599-1.6454 10.604 4.2359 13.816-9.1635 0.4472-19.013-2.3257-17.759 9.4066 0.0835 6.202 3.5253 7.4317 8.6446 7.3878 0.27811 7.124 0.16336 17.473 0.60352 22.468 0.9032 1.3171 3.9497 3.7023 5.9876 3.5723 5.5011-0.351 5.9849-2.5256 7.0082-4.0802 0.3578-4.1622 0.26937-6.3498 0.61878-21.555 8.9791-0.4801 7.7805-6.4231 9.1792-4.2571 2.6452 3.6769 4.4293 6.4051 7.1938 10.254 0.3585 4.9751-0.67031 16.493 2.3027 18.272 2.973 1.7788 6.4877 2.2907 9.4085-0.049 2.9208-2.3396 2.1597-5.2753 2.3062-17.858 3.0463-4.7944 8.1502-9.5028 8.5695-14.92-0.88979-9.8363-10.092-11.281-15.672-2.6609-6.1799-9.0462-11.097-5.8403-14.478-1.1445-1.8472-3.753-4.1104-4.5257-7.2445-5.0517 2.798-1.9954 4.035-4.8787 4.1411-7.9449 3.9831 2.5121 8.8822 2.0398 11.957-0.048-0.73404 10.77 12.472 10.064 13.879 2.5478 1.9851 7.0686 9.9551 5.6566 14.9 5.5492 9.0436 0.011 11.859-0.6813 16.734-8.7522 1.3764 10.602 7.9996 8.7673 14.342 8.9899 12.419 0.2873 13.067-0.9884 15.597-5.126 3.205 5.4293 8.7341 4.6294 14.361 4.7151 11.133 0.1697 14.47-0.3017 14.068-9.0992-0.77638-8.2328-3.7955-7.1796-9.9157-7.5595-5.7204 0.1213-5.2931-4.8017-5.4033-16.567 0.77024-12.814-10.753-10.813-13.613-5.261-2.4152-4.8306-8.111-3.7396-15.814-3.8055-7.7032-0.066-12.734-0.7529-13.199 9.2302-5.2004-9.7742-8.7727-9.7009-18.685-9.7679s-11.256 0.6929-13.393 5.7014c-8.5822-11.378-16.774-2.7175-20.006 5.7341-6.2339-16.732-22.439-13.645-20.545 3.5002-6.8424-20.746-33.007-18.272-37.933 0.5752-0.5664-19.333-16.642-15.814-31.892-14.64zm50.646 18.106c7.649 0.019 7.564 8.4867 0.8967 8.8746-9.7264-0.5786-5.8808-8.8872-0.8967-8.8746zm77.55 28.354c-0.40651 6.3605-0.0544 13.126-0.571 19.709-7.9301-2.4689-10.653 1.0835-10.64 7.1645-0.72194 12.427 15.763 15.446 22.236 6.1852 2.3354-3.4431 2.444-4.3366 2.3208-19.121-0.1233-14.792-0.053-14.391-2.9156-16.704-4.041-2.6227-8.115-1.0413-10.431 2.7665z" fill="#de5596" stroke="#dc468e" stroke-linecap="round" stroke-width="1.9995" style="paint-order:normal"/>
   <path d="m-567.76 6028.9c0.80047 9.3703 14.203 5.8443 21.243 5.7404 4.2656-0.063 5.8246-9.9878-7.0672-8.6284-9.7354 1.0265-0.34215-26.064-9.4312-25.812-7.0348-0.3791-3.7341 8.5003-4.7445 28.7zm-97.176 6.4783c7.4305 0.2658 4.0593-6.2617 5.553-9.6606 1.2458-2.8349 3.121 3.257 8.4144 3.331 3.5737 0.05 6.0393-5.2026 7.4452-3.7883 2.2583 2.2717-1.3581 10.48 6.3763 10.14 5.5997-0.2463 3.0467-17.381 3.0942-29.617 0.0224-5.7761-9.8238-9.5066-14.144 3.9368-0.79182 2.464-5.044 2.5781-5.7433 0.5154-5.3371-15.744-15.151-8.304-15.059-4.4952 0.49833 20.615-2.2898 29.41 4.0633 29.638zm61.979 34.654c-0.34106-23.69 1.4994-26.061-3.5699-26.592-9.991-1.0454-2.2611 30.166-6.5028 25.736-5.9511-6.2158-13.086 0.018-6.9221 6.3128 4.5331 4.8297 13.943 3.6303 16.995-5.4566zm30.575-39.54c-0.14241-7.8695-15.274-1.0017-15.238-6.217 0.0285-4.1048 11.295 1.2505 11.12-6.2249-0.19753-8.4458-11.133-1.1279-11.012-7.0833 0.0744-3.6659 15.844 2.3647 15.226-5.9243-0.45456-6.0989-4.8365-4.4141-21.239-4.3107-1.0191 0.01-2.6763 2.5689-2.6687 2.8646 0.42969 16.622-2.8075 31.422 2.9272 31.569 18.323 0.4701 20.98 0.6184 20.885-4.6737zm-120.71-29.936c-19.122 4.8368-16.252 29.656-1.555 34.037 30.085 4.9223 28.589-38.8 1.555-34.037zm2.6138 8.6315c12.627 1.1045 10.133 19.927-1.4135 16.241-9.4117-2.992-7.6444-16.018 1.4135-16.241zm-48.697-8.2091c-0.6956 11.811-0.271 16.782-0.271 31.703 1.6111 4.1749 21.122 3.1302 23.009 0 3.778-3.4364 5.2101-9.3457 2.0476-15.032 2.4118-3.1864 1.7658-8.1738 0.9064-10.953-5.7625-9.6037-14.787-5.653-25.692-5.7226zm17.738 10.401c1.5823 2.5584-11.076 2.2026-9.502 0.047-1.5274-2.7888 10.576-2.8896 9.502-0.047zm87.262 48.398c15.786-18.189 0.87971-18.299-2.0465-12.426-2.242 4.4996-4.7146 1.3358-5.7029-0.074-5.2295-7.4595-17.185-3.3674-2.1662 11.854 1.8707 15.236-1.4236 19.211 5.2618 19.223 6.6443-0.3604 2.9647-8.136 4.6538-18.577zm-30.154-6.9834c3.5467-1.3591 8.7508 0.1894 8.0764-6.1042-0.33675-3.1424-0.779-3.3451-13.595-3.6097s-13.032 0.5099-13.222 3.7398c-0.37984 6.4509 5.1397 4.8913 7.9333 6.0279s-2.2293 25.376 5.307 25.391c7.5363 0.014 1.9537-24.086 5.5004-25.445zm-57.557-28.334c2.0965 2.9812-10.93 2.7512-8.4445 0.042-3.1484-2.7568 10.298-3.3214 8.4445-0.042zm93.926-23.719c-0.61814 10.497-0.48488 18.966-0.48488 32.226 1.4318 3.7103 19.758 2.5892 22.352 0.6345 5.0148-3.7783 5.704-11.185 2.8935-16.239 2.1434-2.8318 1.8133-8.7284 0.61033-11.247-3.9986-8.4861-15.728-5.3168-25.371-5.3786zm17.228 10.707c1.4062 2.2737-9.843 1.9575-8.4444 0.042-1.3574-2.4784 9.3986-2.5679 8.4444-0.042zm-0.44831 12.698c1.8632 2.6494-9.7137 2.445-7.5046 0.037-2.798-2.45 9.1514-2.9517 7.5046-0.037z" fill="#ffbcdb" stroke="#fd94c5" stroke-width="2"/>
  </g>
 </g>
</svg>
