<?xml version="1.0" encoding="UTF-8" standalone="no"?>
<!-- Created with Inkscape (http://www.inkscape.org/) -->

<svg
   width="250"
   height="250"
   viewBox="0 0 66.145832 66.145833"
   version="1.1"
   id="svg5"
   xml:space="preserve"
   inkscape:version="1.2-rc (6364d40632, 2022-05-08)"
   sodipodi:docname="aloes.svg"
   xmlns:inkscape="http://www.inkscape.org/namespaces/inkscape"
   xmlns:sodipodi="http://sodipodi.sourceforge.net/DTD/sodipodi-0.dtd"
   xmlns="http://www.w3.org/2000/svg"
   xmlns:svg="http://www.w3.org/2000/svg"><sodipodi:namedview
     id="namedview7"
     pagecolor="#505050"
     bordercolor="#eeeeee"
     borderopacity="1"
     inkscape:showpageshadow="0"
     inkscape:pageopacity="0"
     inkscape:pagecheckerboard="0"
     inkscape:deskcolor="#505050"
     inkscape:document-units="mm"
     showgrid="false"
     inkscape:zoom="1.385842"
     inkscape:cx="196.27057"
     inkscape:cy="169.572"
     inkscape:window-width="1920"
     inkscape:window-height="1017"
     inkscape:window-x="1042"
     inkscape:window-y="-8"
     inkscape:window-maximized="1"
     inkscape:current-layer="g414" /><defs
     id="defs2"><marker
       style="overflow:visible"
       id="marker169721"
       refX="0"
       refY="0"
       orient="auto-start-reverse"
       inkscape:stockid="TriangleStart"
       markerWidth="5.3244081"
       markerHeight="6.15538509"
       viewBox="0 0 5.3244081 6.15538509"
       inkscape:isstock="true"
       inkscape:collect="always"
       preserveAspectRatio="xMidYMid"><path
         transform="scale(0.5)"
         style="fill:context-stroke;fill-rule:evenodd;stroke:context-stroke;stroke-width:1pt"
         d="M 5.77,0 -2.88,5 V -5 Z"
         id="path169719" /></marker><marker
       style="overflow:visible"
       id="TriangleStart"
       refX="0"
       refY="0"
       orient="auto-start-reverse"
       inkscape:stockid="TriangleStart"
       markerWidth="5.3244081"
       markerHeight="6.15538509"
       viewBox="0 0 5.3244081 6.15538509"
       inkscape:isstock="true"
       inkscape:collect="always"
       preserveAspectRatio="xMidYMid"><path
         transform="scale(0.5)"
         style="fill:context-stroke;fill-rule:evenodd;stroke:context-stroke;stroke-width:1pt"
         d="M 5.77,0 -2.88,5 V -5 Z"
         id="path135" /></marker></defs><g
     inkscape:label="Warstwa 1"
     inkscape:groupmode="layer"
     id="layer1"><g
       id="g310"
       transform="translate(43.335,-0.405)"><g
         id="g414"
         transform="matrix(1.0305291,0,0,1.0305291,2.8493913,0.25456727)"><g
           id="g169753"
           transform="matrix(1.4333953,0,0,1.4333953,9.1353791,-4.7108927)"><g
             id="path168893-7"
             style="fill:none;fill-opacity:1;stroke:#191919;stroke-width:1.94075;stroke-linecap:round;stroke-dasharray:1.94075, 1.94075;stroke-dashoffset:0;stroke-opacity:1;paint-order:markers fill stroke"
             transform="translate(14.344573,-60.587809)"><path
               style="color:#000000;fill:none;fill-opacity:1;stroke:#191919;stroke-width:1.94075;stroke-linecap:round;stroke-linejoin:round;stroke-dasharray:1.94075, 1.94075;stroke-dashoffset:0;stroke-opacity:1;paint-order:markers fill stroke"
               d="m -29.449219,66.443359 a 0.97047204,0.97047204 0 0 0 -0.935547,0.615235 c -1.612371,4.111473 -2.867612,11.336729 -3.49414,18.4375 -3.888133,-7.336703 -8.600957,-10.264401 -13.341797,-11.113282 -0.0014,-5.72e-4 -0.0025,-0.0014 -0.0039,-0.002 v 0.002 c -0.06862,-0.01227 -0.136469,-0.04903 -0.205078,-0.06055 a 0.97047204,0.97047204 0 0 0 -0.525391,1.855468 c 2.82979,1.149483 4.428469,3.556317 5.517578,6.722657 1.089109,3.166339 1.588189,7.01516 2.183594,10.667968 0.595404,3.652808 1.25763,7.122035 2.951172,9.632815 1.674414,2.48243 4.565731,3.80302 8.662109,2.98242 3.729542,0.41773 6.334608,-1.15297 7.822266,-3.6875 1.515474,-2.581919 2.125548,-6.018989 2.699218,-9.603516 0.573671,-3.584527 1.08973,-7.321585 2.179688,-10.384766 1.089958,-3.06318 2.677975,-5.384491 5.443359,-6.507812 a 0.97047204,0.97047204 0 0 0 -0.527344,-1.855469 c -0.06798,0.01141 -0.135136,0.04839 -0.203125,0.06055 v -0.002 c -0.0023,9.2e-4 -0.0036,0.003 -0.0059,0.0039 -4.916684,0.880463 -9.795302,3.994574 -13.765625,11.96875 -0.830234,-7.390024 -2.266896,-15.001754 -3.558594,-19.05664 a 0.97047204,0.97047204 0 0 0 -0.892578,-0.675782 z m -0.07422,5.029297 c 1.200882,4.853167 2.470632,11.445761 3.013671,17.951172 a 0.97047204,0.97047204 0 0 0 1.867188,0.283203 c 2.710826,-6.73707 5.770627,-10.019963 9,-11.818359 -0.861983,1.204438 -1.60728,2.513768 -2.125,3.96875 -1.190184,3.344853 -1.69913,7.176619 -2.267578,10.728515 -0.568448,3.551897 -1.219518,6.819378 -2.457031,8.927733 -1.237514,2.10836 -2.821719,3.17385 -6.091797,2.7461 a 0.97047204,0.97047204 0 0 0 -0.326172,0.0137 c -3.666014,0.77337 -5.439295,-0.16382 -6.783203,-2.15625 -1.343908,-1.99243 -2.056858,-5.253998 -2.644532,-8.859378 -0.587673,-3.605379 -1.078623,-7.543019 -2.263671,-10.988281 -0.527372,-1.533212 -1.282256,-2.926403 -2.181641,-4.189453 3.076517,1.724689 5.99982,4.790294 8.619141,10.947266 a 0.97047204,0.97047204 0 0 0 1.861328,-0.326172 c 0.347519,-6.26912 1.498922,-12.534444 2.779297,-17.228516 z"
               id="path169509" /><path
               style="color:#000000;fill:none;fill-opacity:1;stroke:#191919;stroke-width:1.94075;stroke-linecap:round;stroke-linejoin:round;stroke-dasharray:1.94075, 1.94075;stroke-dashoffset:0;stroke-opacity:1;paint-order:markers fill stroke"
               d="m -29.480892,67.413267 c -1.766548,4.504615 -3.349564,13.280782 -3.790501,21.23513 -4.08412,-9.600129 -9.148794,-12.501272 -14.319057,-13.369301 12.621392,5.126908 3.205733,33.249564 18.880295,29.942904 14.225517,1.86082 5.514171,-25.1102 17.848301,-30.12042 -5.324095,0.893857 -10.536387,3.94168 -14.681109,14.242335 -0.685126,-8.207563 -2.507701,-17.440888 -3.937929,-21.930648 z"
               id="path169511" /></g><path
             style="fill:#02a026;fill-opacity:1;stroke:#000000;stroke-width:1.9666;stroke-linecap:round;stroke-linejoin:round;paint-order:stroke fill markers"
             d="m -15.174158,6.920977 c -3.748783,9.878484 -6.930908,31.335255 0.200513,30.469386 7.0703771,0.949235 2.736061,-20.943031 -0.200513,-30.469386 z"
             id="path168893"
             sodipodi:nodetypes="ccc" /><path
             style="fill:#02a026;fill-opacity:1;stroke:#000000;stroke-width:1.94075;stroke-linecap:round;stroke-linejoin:round;paint-order:stroke fill markers"
             d="M -15.54465,44.516445 C 0.2838116,47.977823 -9.2059972,19.735336 3.4447983,14.596484 -3.9571976,15.839197 -11.143792,21.244315 -15.54465,44.516445 Z"
             id="path169450"
             sodipodi:nodetypes="ccc" /><path
             style="fill:#02a026;fill-opacity:1;stroke:#000000;stroke-width:1.94075;stroke-linecap:round;stroke-linejoin:round;paint-order:stroke fill markers"
             d="m -14.294496,44.694308 c -15.828461,3.461378 -6.338653,-24.781109 -18.989448,-29.919961 7.401996,1.242713 14.58859,6.647831 18.989448,29.919961 z"
             id="path169450-0"
             sodipodi:nodetypes="ccc" /></g></g></g></g></svg>
