<?xml version="1.0" encoding="UTF-8" standalone="no"?>
<!-- Created with Inkscape (http://www.inkscape.org/) -->

<svg
   width="250"
   height="250"
   viewBox="0 0 66.145832 66.145833"
   version="1.1"
   id="svg5"
   xml:space="preserve"
   inkscape:version="1.2-rc (6364d40632, 2022-05-08)"
   sodipodi:docname="ananas.svg"
   xmlns:inkscape="http://www.inkscape.org/namespaces/inkscape"
   xmlns:sodipodi="http://sodipodi.sourceforge.net/DTD/sodipodi-0.dtd"
   xmlns="http://www.w3.org/2000/svg"
   xmlns:svg="http://www.w3.org/2000/svg"><sodipodi:namedview
     id="namedview7"
     pagecolor="#505050"
     bordercolor="#eeeeee"
     borderopacity="1"
     inkscape:showpageshadow="0"
     inkscape:pageopacity="0"
     inkscape:pagecheckerboard="0"
     inkscape:deskcolor="#505050"
     inkscape:document-units="mm"
     showgrid="false"
     inkscape:zoom="1.4142136"
     inkscape:cx="-79.903066"
     inkscape:cy="134.35029"
     inkscape:window-width="1920"
     inkscape:window-height="1017"
     inkscape:window-x="1042"
     inkscape:window-y="-8"
     inkscape:window-maximized="1"
     inkscape:current-layer="g107692" /><defs
     id="defs2" /><g
     inkscape:groupmode="layer"
     id="layer4"
     inkscape:label="WŁAŚCIWA" /><g
     id="g76842"
     transform="matrix(2.7182908,0,0,2.7182908,-48.44916,-49.621685)"><g
       id="g107692"
       transform="matrix(2.6707879,0,0,2.6707879,-53.335334,-58.353002)"><g
         id="g113173"
         transform="matrix(3.6217338,0,0,3.6217338,-76.418902,-90.113443)"><ellipse
           style="opacity:1;fill:#ffb900;fill-opacity:1;stroke:#000000;stroke-width:0.254088;stroke-linecap:round;stroke-linejoin:round;stroke-dasharray:none;stroke-opacity:1;paint-order:stroke fill markers"
           id="path109984"
           cx="45.518291"
           cy="2.8963313"
           rx="0.90745294"
           ry="0.67459404"
           transform="matrix(0.70430222,0.70990026,-0.72249983,0.6913711,0,0)" /><path
           style="opacity:1;fill:#107c10;fill-opacity:1;stroke:#000000;stroke-width:0.275483;stroke-linecap:round;stroke-linejoin:round;stroke-dasharray:none;stroke-opacity:1;paint-order:stroke fill markers"
           d="m 29.671304,34.017934 c -0.339723,-0.04281 -0.467357,0.198738 -0.595927,0.499292 -0.16574,-0.196772 -0.410241,-0.385861 -0.241593,-0.615256 -0.528479,-0.655135 0.332632,-1.148332 0.702229,-0.689344 0.198725,-0.22012 0.431352,4.82e-4 0.663574,0.215823 -0.433202,0.09449 -0.56379,0.267044 -0.528283,0.589485 z"
           id="path110040"
           sodipodi:nodetypes="cccccc" /><path
           style="opacity:1;fill:#d48c00;fill-opacity:1;stroke:none;stroke-width:0.275483;stroke-linecap:round;stroke-linejoin:round;stroke-dasharray:none;stroke-opacity:1;paint-order:stroke fill markers"
           d="m 29.996206,34.219681 c 0,-0.03644 -0.01367,-0.211831 -0.01367,-0.211831 l 0.09111,-0.082 0.232331,-0.0046 z"
           id="path110096-5" /><path
           style="opacity:1;fill:#d48c00;fill-opacity:1;stroke:none;stroke-width:0.275483;stroke-linecap:round;stroke-linejoin:round;stroke-dasharray:none;stroke-opacity:1;paint-order:stroke fill markers"
           d="m 29.5361,34.629677 c 0,-0.03644 -0.01367,-0.211831 -0.01367,-0.211831 l 0.09111,-0.082 0.232331,-0.0046 z"
           id="path110096-2" /><path
           style="opacity:1;fill:#d48c00;fill-opacity:1;stroke:none;stroke-width:0.275483;stroke-linecap:round;stroke-linejoin:round;stroke-dasharray:none;stroke-opacity:1;paint-order:stroke fill markers"
           d="m 29.989372,34.622844 c 0,-0.03644 -0.01367,-0.211831 -0.01367,-0.211831 l 0.09111,-0.082 0.232331,-0.0046 z"
           id="path110096-58" /><path
           style="opacity:1;fill:#d48c00;fill-opacity:1;stroke:none;stroke-width:0.275483;stroke-linecap:round;stroke-linejoin:round;stroke-dasharray:none;stroke-opacity:1;paint-order:stroke fill markers"
           d="m 30.385702,34.641066 c 0,-0.03644 -0.01367,-0.211831 -0.01367,-0.211831 l 0.09111,-0.082 0.232331,-0.0046 z"
           id="path110096-9" /><path
           style="opacity:1;fill:#d48c00;fill-opacity:1;stroke:none;stroke-width:0.275483;stroke-linecap:round;stroke-linejoin:round;stroke-dasharray:none;stroke-opacity:1;paint-order:stroke fill markers"
           d="m 29.955206,35.069284 c 0,-0.03644 -0.01367,-0.211831 -0.01367,-0.211831 l 0.09111,-0.082 0.232331,-0.0046 z"
           id="path110096-8" /><path
           style="opacity:1;fill:#d48c00;fill-opacity:1;stroke:none;stroke-width:0.275483;stroke-linecap:round;stroke-linejoin:round;stroke-dasharray:none;stroke-opacity:1;paint-order:stroke fill markers"
           d="m 29.65739,34.933758 c -0.03701,-0.0222 -0.113892,-0.09054 -0.113892,-0.09054 l 0.108763,-0.09965 0.232331,-0.0046 z"
           id="path110096-4"
           sodipodi:nodetypes="ccccc" /><path
           style="opacity:1;fill:#d48c00;fill-opacity:1;stroke:none;stroke-width:0.275483;stroke-linecap:round;stroke-linejoin:round;stroke-dasharray:none;stroke-opacity:1;paint-order:stroke fill markers"
           d="m 30.413035,34.196903 c 0,-0.03644 -0.01367,-0.211831 -0.01367,-0.211831 l 0.09794,-0.08656 c 0.03058,0.03067 0.059,0.06784 0.08656,0.10758 z"
           id="path110096-98"
           sodipodi:nodetypes="ccccc" /><path
           style="opacity:1;fill:#d48c00;fill-opacity:1;stroke:none;stroke-width:0.275483;stroke-linecap:round;stroke-linejoin:round;stroke-dasharray:none;stroke-opacity:1;paint-order:stroke fill markers"
           d="m 29.275653,34.501341 c -0.01966,-0.0323 -0.06735,-0.150899 -0.05923,-0.152609 l 0.09111,-0.082 0.232331,-0.0046 z"
           id="path110096-50"
           sodipodi:nodetypes="ccccc" /><path
           style="opacity:1;fill:#d48c00;fill-opacity:1;stroke:none;stroke-width:0.275483;stroke-linecap:round;stroke-linejoin:round;stroke-dasharray:none;stroke-opacity:1;paint-order:stroke fill markers"
           d="m 29.98254,33.848407 c 0,-0.03644 -0.01367,-0.211831 -0.01367,-0.211831 l 0.0746,-0.05694 0.129832,0.05918 z"
           id="path110096-90"
           sodipodi:nodetypes="ccccc" /><path
           style="opacity:1;fill:#000000;fill-opacity:1;stroke:#000000;stroke-width:0.137741;stroke-linecap:round;stroke-linejoin:round;stroke-dasharray:none;stroke-opacity:1;paint-order:stroke fill markers"
           d="m 28.833784,33.141759 0.399433,0.450973"
           id="path113147" /><path
           style="opacity:1;fill:#000000;fill-opacity:1;stroke:#000000;stroke-width:0.137742;stroke-linecap:round;stroke-linejoin:round;stroke-dasharray:none;stroke-opacity:1;paint-order:stroke fill markers"
           d="M 28.872439,34.314288 29.104368,34.03082"
           id="path113149" /><path
           style="opacity:1;fill:#000000;fill-opacity:1;stroke:#000000;stroke-width:0.137742;stroke-linecap:round;stroke-linejoin:round;stroke-dasharray:none;stroke-opacity:1;paint-order:stroke fill markers"
           d="m 30.044968,33.206184 -0.347893,0.270584"
           id="path113151" /><path
           style="opacity:1;fill:#000000;fill-opacity:1;stroke:#000000;stroke-width:0.137742;stroke-linecap:round;stroke-linejoin:round;stroke-dasharray:none;stroke-opacity:1;paint-order:stroke fill markers"
           d="m 29.181678,33.025795 0.06442,0.219044"
           id="path113153" /><path
           style="opacity:1;fill:#000000;fill-opacity:1;stroke:#000000;stroke-width:0.137742;stroke-linecap:round;stroke-linejoin:round;stroke-dasharray:none;stroke-opacity:1;paint-order:stroke fill markers"
           d="m 28.66628,33.592732 0.206159,-0.01288"
           id="path113155" /></g></g></g></svg>
