<?xml version="1.0" encoding="UTF-8" standalone="no"?>
<!-- Created with Inkscape (http://www.inkscape.org/) -->

<svg
   width="250"
   height="250"
   viewBox="0 0 66.145832 66.145833"
   version="1.1"
   id="svg5"
   xml:space="preserve"
   inkscape:version="1.2-rc (6364d40632, 2022-05-08)"
   sodipodi:docname="jagoda.svg"
   xmlns:inkscape="http://www.inkscape.org/namespaces/inkscape"
   xmlns:sodipodi="http://sodipodi.sourceforge.net/DTD/sodipodi-0.dtd"
   xmlns="http://www.w3.org/2000/svg"
   xmlns:svg="http://www.w3.org/2000/svg"><sodipodi:namedview
     id="namedview7"
     pagecolor="#505050"
     bordercolor="#eeeeee"
     borderopacity="1"
     inkscape:showpageshadow="0"
     inkscape:pageopacity="0"
     inkscape:pagecheckerboard="0"
     inkscape:deskcolor="#505050"
     inkscape:document-units="mm"
     showgrid="false"
     inkscape:zoom="1.385842"
     inkscape:cx="177.14862"
     inkscape:cy="155.86192"
     inkscape:window-width="1920"
     inkscape:window-height="1017"
     inkscape:window-x="1042"
     inkscape:window-y="-8"
     inkscape:window-maximized="1"
     inkscape:current-layer="layer7" /><defs
     id="defs2" /><g
     inkscape:label="Warstwa 1"
     inkscape:groupmode="layer"
     id="layer1" /><g
     inkscape:groupmode="layer"
     id="layer7"
     inkscape:label="Warstwa 2"><g
       id="g186184"
       transform="matrix(1.1074749,0,0,1.1074749,-1.4833505,-2.840159)"><path
         style="fill:#17d548;fill-opacity:1;stroke:#090904;stroke-width:2;stroke-linecap:round;stroke-linejoin:round;paint-order:markers fill stroke"
         d="M 27.715273,40.358818 C 17.225742,41.406119 10.962315,37.023829 9.472598,59.17807 15.374653,53.021791 35.738185,56.475847 27.715273,40.358818 Z"
         id="path186077"
         sodipodi:nodetypes="ccc" /><path
         style="fill:#17d548;fill-opacity:1;stroke:#090904;stroke-width:2;stroke-linecap:round;stroke-linejoin:round;paint-order:markers fill stroke"
         d="M 28.554824,42.21757 C 30.908228,52.4932 27.345296,59.256372 49.511597,57.958383 42.6643,52.874237 43.539545,32.238396 28.554824,42.21757 Z"
         id="path186077-7"
         sodipodi:nodetypes="ccc" /><circle
         style="fill:#17214d;fill-opacity:1;stroke:#090904;stroke-width:2;stroke-linecap:round;stroke-linejoin:round;paint-order:markers fill stroke"
         id="path185511"
         cx="33.219875"
         cy="26.3468"
         r="20.237394" /><path
         style="fill:#3c52a6;stroke-width:0.264583"
         d="m 14.343684,21.846557 c 1.898722,-8.670843 9.108002,-14.879032 14.15086,-14.1993392 1.380584,4.5774222 -6.302704,3.7453562 -6.3561,6.9807852 0.390431,2.413218 3.146928,2.366621 5.353,2.863601 1.039142,1.385307 1.527876,3.046924 3.06217,4.097966 1.709198,0.775967 3.557725,-0.374913 4.71558,-1.716906 2.038501,-1.104445 5.600304,1.280748 7.69531,-1.751158 1.737111,-2.917219 -2.388625,-4.211338 0.37801,-7.590761 2.821115,-0.375028 7.855249,7.673104 8.57236,9.58802 5.744915,25.470989 -42.6550347,20.642861 -37.57119,1.727792 z M 35.222854,9.9411927 c -0.525426,-0.597481 -2.012461,-2.0792193 -1.11202,-2.7191639 0.913976,-0.089463 5.54082,0.4342585 5.6224,1.3583119 -0.910351,0.803193 -3.06595,1.7783293 -4.51038,1.360852 z"
         id="path506-3"
         sodipodi:nodetypes="cccccccccccccc" /></g></g></svg>
