<?xml version="1.0" encoding="UTF-8" standalone="no"?>
<!-- Created with Inkscape (http://www.inkscape.org/) -->

<svg
   width="250"
   height="250"
   viewBox="0 0 66.145832 66.145833"
   version="1.1"
   id="svg5"
   xml:space="preserve"
   inkscape:version="1.2-rc (6364d40632, 2022-05-08)"
   sodipodi:docname="jogurt.svg"
   xmlns:inkscape="http://www.inkscape.org/namespaces/inkscape"
   xmlns:sodipodi="http://sodipodi.sourceforge.net/DTD/sodipodi-0.dtd"
   xmlns="http://www.w3.org/2000/svg"
   xmlns:svg="http://www.w3.org/2000/svg"><sodipodi:namedview
     id="namedview7"
     pagecolor="#505050"
     bordercolor="#eeeeee"
     borderopacity="1"
     inkscape:showpageshadow="0"
     inkscape:pageopacity="0"
     inkscape:pagecheckerboard="0"
     inkscape:deskcolor="#505050"
     inkscape:document-units="mm"
     showgrid="false"
     inkscape:zoom="1.9598766"
     inkscape:cx="134.19213"
     inkscape:cy="113.27244"
     inkscape:window-width="1920"
     inkscape:window-height="1017"
     inkscape:window-x="1042"
     inkscape:window-y="-8"
     inkscape:window-maximized="1"
     inkscape:current-layer="g171038" /><defs
     id="defs2" /><g
     inkscape:label="Warstwa 1"
     inkscape:groupmode="layer"
     id="layer1"><g
       id="g310"
       transform="translate(43.335,-0.405)"><g
         id="g453"
         transform="translate(230.24811,19.473721)"><g
           id="g498"
           transform="translate(-15.082588,-22.146584)"><g
             id="g570"
             transform="translate(72.474049,66.244296)"><g
               id="g171038"
               transform="translate(-116.34825,86.36741)"><g
                 id="g174485"
                 transform="matrix(0.70938178,0,0,0.70938178,-51.380973,-35.580225)"><path
                   style="opacity:1;fill:#fee8ea;fill-opacity:1;stroke:#000000;stroke-width:2;stroke-linecap:round;stroke-linejoin:round;stroke-dasharray:none;stroke-opacity:1;paint-order:markers fill stroke"
                   d="m -214.89632,-133.87384 c 7.61308,65.328779 -4.29275,49.125778 30.375,63.584996 34.14138,-13.077613 23.54544,1.957133 31.05,-63.989996"
                   id="path171098"
                   sodipodi:nodetypes="ccc" /><path
                   style="opacity:1;fill:#ffffff;fill-opacity:1;stroke:#000000;stroke-width:2;stroke-linecap:round;stroke-linejoin:round;stroke-dasharray:none;stroke-opacity:1;paint-order:markers fill stroke"
                   d="m -224.34632,-138.32884 c 55.62486,24.74846 32.21523,19.51825 81.135,-1.89 -51.09283,-24.98808 -34.83025,-19.08361 -80.325,-3.51 -1.60727,1.17212 -2.06526,3.34579 -0.81,5.4 z"
                   id="path171571"
                   sodipodi:nodetypes="cccc" /><path
                   style="opacity:1;fill:#ffffff;fill-opacity:1;stroke:#000000;stroke-width:2;stroke-linecap:round;stroke-linejoin:round;stroke-dasharray:none;stroke-opacity:1;paint-order:markers fill stroke"
                   d="m -213.27632,-118.21384 c 45.98576,16.86473 17.77611,18.620841 58.725,0.135 l -2.025,24.434998 c -39.97442,14.75832 -13.71068,13.860493 -55.35,-2.97 z"
                   id="path171573"
                   sodipodi:nodetypes="ccccc" /><path
                   style="opacity:1;fill:none;fill-opacity:1;stroke:#000000;stroke-width:2;stroke-linecap:round;stroke-linejoin:round;stroke-dasharray:none;stroke-opacity:1;paint-order:markers fill stroke"
                   d="m -213.54632,-138.73384 c -11.22899,-1.41896 -2.3598,-4.774 0.51552,-5.79461 38.40344,-13.63154 16.2126,-13.85324 62.52948,3.76961 -45.07271,18.10429 -16.63022,19.01217 -63.585,2.43 38.15564,-12.92043 21.52867,-13.99334 57.915,-0.81"
                   id="path171575"
                   sodipodi:nodetypes="csccc" /></g></g></g></g></g></g></g></svg>
