<?xml version="1.0" encoding="UTF-8" standalone="no"?>
<!-- Created with Inkscape (http://www.inkscape.org/) -->

<svg
   width="250"
   height="250"
   viewBox="0 0 66.145832 66.145833"
   version="1.1"
   id="svg5"
   xml:space="preserve"
   inkscape:version="1.2-rc (6364d40632, 2022-05-08)"
   sodipodi:docname="wanilia.svg"
   xmlns:inkscape="http://www.inkscape.org/namespaces/inkscape"
   xmlns:sodipodi="http://sodipodi.sourceforge.net/DTD/sodipodi-0.dtd"
   xmlns="http://www.w3.org/2000/svg"
   xmlns:svg="http://www.w3.org/2000/svg"><sodipodi:namedview
     id="namedview7"
     pagecolor="#505050"
     bordercolor="#eeeeee"
     borderopacity="1"
     inkscape:showpageshadow="0"
     inkscape:pageopacity="0"
     inkscape:pagecheckerboard="0"
     inkscape:deskcolor="#505050"
     inkscape:document-units="mm"
     showgrid="false"
     inkscape:zoom="2"
     inkscape:cx="35.75"
     inkscape:cy="102"
     inkscape:window-width="1920"
     inkscape:window-height="1017"
     inkscape:window-x="1042"
     inkscape:window-y="-8"
     inkscape:window-maximized="1"
     inkscape:current-layer="layer6" /><defs
     id="defs2" /><g
     inkscape:label="Warstwa 1"
     inkscape:groupmode="layer"
     id="layer1" /><g
     inkscape:groupmode="layer"
     id="layer6"
     inkscape:label="Warstwa 2"><g
       id="g184954"
       transform="matrix(0.88190784,0,0,0.88190784,24.843324,-72.680899)"><path
         style="opacity:1;fill:#344f1b;fill-opacity:1;stroke:#090904;stroke-width:2;stroke-linecap:round;stroke-linejoin:round;stroke-dasharray:none;stroke-dashoffset:0;stroke-opacity:1;paint-order:markers fill stroke"
         d="m 18.420866,120.11099 c 18.332145,0.0603 22.814745,8.9827 24.937876,19.41494 -12.297328,0.60622 -19.97566,-6.9986 -28.173141,-13.68055 z"
         id="path182991"
         sodipodi:nodetypes="cccc" /><path
         style="fill:#344f1b;fill-opacity:1;stroke:#090904;stroke-width:2;stroke-linecap:round;stroke-linejoin:round;stroke-dasharray:none;stroke-dashoffset:0;stroke-opacity:1;paint-order:markers fill stroke"
         d="M 10.549916,115.39929 C 12.903561,97.218761 22.316724,93.887808 32.932635,93.086704 36.288781,108.72754 23.489575,112.02967 15.834424,119.32664 Z"
         id="path182991-0"
         sodipodi:nodetypes="cccc" /><g
         id="g182935"
         transform="translate(74.927405,-11.491933)"><path
           id="path176159-7-1"
           style="opacity:1;fill:#cfcba5;fill-opacity:1;stroke:#000000;stroke-width:2;stroke-linecap:round;stroke-linejoin:round;stroke-opacity:1;paint-order:markers fill stroke"
           d="m -66.127507,102.78451 c -9.8621,9.37352 -9.87778,15.64135 -6.0849,25.35246 -8.41078,-5.91422 -15.0688,-7.67141 -27.71355,0.18966 10.27027,8.53448 16.74106,8.69923 24.57989,7.78298 -10.5133,2.97455 -13.62255,11.0041 -11.38277,19.56677 9.95469,-2.70131 14.75325,-7.79974 19.09289,-16.68942 7.03025,10.87725 12.64901,14.92707 23.20582,16.06103 -1.42576,-11.83525 -6.7519,-16.26768 -13.78624,-18.24695 9.24845,0.81317 16.91587,-0.54126 22.6534,-10.04176 -13.91537,-8.69902 -21.08632,-2.26947 -27.86496,3.52795 4.59313,-11.26218 5.2168,-18.25578 -2.69958,-27.50272 z" /><circle
           style="opacity:1;fill:#c1a023;fill-opacity:1;stroke:#b9b952;stroke-width:5;stroke-linecap:round;stroke-linejoin:round;stroke-dasharray:2.5, 2.5;stroke-dashoffset:0;stroke-opacity:1;paint-order:markers fill stroke"
           id="path176376"
           cx="-67.593254"
           cy="133.42378"
           r="5.894619" /></g></g></g></svg>
