<?xml version="1.0" encoding="UTF-8"?>
<svg width="250" height="250" version="1.1" viewBox="0 0 66.146 66.146" xml:space="preserve" xmlns="http://www.w3.org/2000/svg"><ellipse transform="matrix(18.519 18.666 -18.997 18.179 -748.23 -862.46)" cx="45.518" cy="2.8963" rx=".90745" ry=".67459" fill="#ffb900" stroke="#000" stroke-linecap="round" stroke-linejoin="round" stroke-width=".25409" style="paint-order:stroke fill markers"/><path transform="matrix(26.294 0 0 26.294 -748.23 -862.46)" d="m29.671 34.018c-0.33972-0.04281-0.46736 0.19874-0.59593 0.49929-0.16574-0.19677-0.41024-0.38586-0.24159-0.61526-0.52848-0.65514 0.33263-1.1483 0.70223-0.68934 0.19872-0.22012 0.43135 4.82e-4 0.66357 0.21582-0.4332 0.09449-0.56379 0.26704-0.52828 0.58948z" fill="#107c10" stroke="#000" stroke-linecap="round" stroke-linejoin="round" stroke-width=".27548" style="paint-order:stroke fill markers"/><g fill="#d48c00"><path transform="matrix(26.294 0 0 26.294 -748.23 -862.46)" d="m29.996 34.22c0-0.03644-0.01367-0.21183-0.01367-0.21183l0.09111-0.082 0.23233-0.0046z" style="paint-order:stroke fill markers"/><path transform="matrix(26.294 0 0 26.294 -748.23 -862.46)" d="m29.536 34.63c0-0.03644-0.01367-0.21183-0.01367-0.21183l0.09111-0.082 0.23233-0.0046z" style="paint-order:stroke fill markers"/><path transform="matrix(26.294 0 0 26.294 -748.23 -862.46)" d="m29.989 34.623c0-0.03644-0.01367-0.21183-0.01367-0.21183l0.09111-0.082 0.23233-0.0046z" style="paint-order:stroke fill markers"/><path transform="matrix(26.294 0 0 26.294 -748.23 -862.46)" d="m30.386 34.641c0-0.03644-0.01367-0.21183-0.01367-0.21183l0.09111-0.082 0.23233-0.0046z" style="paint-order:stroke fill markers"/><path transform="matrix(26.294 0 0 26.294 -748.23 -862.46)" d="m29.955 35.069c0-0.03644-0.01367-0.21183-0.01367-0.21183l0.09111-0.082 0.23233-0.0046z" style="paint-order:stroke fill markers"/><path transform="matrix(26.294 0 0 26.294 -748.23 -862.46)" d="m29.657 34.934c-0.03701-0.0222-0.11389-0.09054-0.11389-0.09054l0.10876-0.09965 0.23233-0.0046z" style="paint-order:stroke fill markers"/><path transform="matrix(26.294 0 0 26.294 -748.23 -862.46)" d="m30.413 34.197c0-0.03644-0.01367-0.21183-0.01367-0.21183l0.09794-0.08656c0.03058 0.03067 0.059 0.06784 0.08656 0.10758z" style="paint-order:stroke fill markers"/></g><g stroke="#000" stroke-linecap="round" stroke-linejoin="round"><path transform="matrix(26.294 0 0 26.294 -748.23 -862.46)" d="m28.834 33.142 0.39943 0.45097" stroke-width=".13774" style="paint-order:stroke fill markers"/><g stroke-width=".13774"><path transform="matrix(26.294 0 0 26.294 -748.23 -862.46)" d="m28.872 34.314 0.23193-0.28347" style="paint-order:stroke fill markers"/><path transform="matrix(26.294 0 0 26.294 -748.23 -862.46)" d="m30.045 33.206-0.34789 0.27058" style="paint-order:stroke fill markers"/><path transform="matrix(26.294 0 0 26.294 -748.23 -862.46)" d="m29.182 33.026 0.06442 0.21904" style="paint-order:stroke fill markers"/><path transform="matrix(26.294 0 0 26.294 -748.23 -862.46)" d="m28.666 33.593 0.20616-0.01288" style="paint-order:stroke fill markers"/></g></g></svg>
