<?xml version="1.0" encoding="UTF-8" standalone="no"?>
<!-- Created with Inkscape (http://www.inkscape.org/) -->

<svg
   width="63.499271mm"
   height="63.500565mm"
   viewBox="0 0 63.499271 63.500565"
   version="1.1"
   id="svg5"
   xml:space="preserve"
   inkscape:version="1.2-rc (6364d40632, 2022-05-08)"
   sodipodi:docname="facebook.svg"
   xmlns:inkscape="http://www.inkscape.org/namespaces/inkscape"
   xmlns:sodipodi="http://sodipodi.sourceforge.net/DTD/sodipodi-0.dtd"
   xmlns="http://www.w3.org/2000/svg"
   xmlns:svg="http://www.w3.org/2000/svg"><sodipodi:namedview
     id="namedview7"
     pagecolor="#505050"
     bordercolor="#eeeeee"
     borderopacity="1"
     inkscape:showpageshadow="0"
     inkscape:pageopacity="0"
     inkscape:pagecheckerboard="0"
     inkscape:deskcolor="#505050"
     inkscape:document-units="mm"
     showgrid="false"
     inkscape:zoom="1.9598765"
     inkscape:cx="37.247244"
     inkscape:cy="94.903937"
     inkscape:window-width="1920"
     inkscape:window-height="1017"
     inkscape:window-x="1042"
     inkscape:window-y="-8"
     inkscape:window-maximized="1"
     inkscape:current-layer="g248" /><defs
     id="defs2" /><g
     inkscape:label="Warstwa 1"
     inkscape:groupmode="layer"
     id="layer1"
     transform="translate(-31.822624,-91.468667)"><g
       id="g248"
       transform="translate(-75.206123,203.13923)"><path
         style="fill:#fcfcfc;stroke-width:0.264583"
         d="m 140.89667,-72.77625 c -2.73403,0 -5.46806,0 -8.20209,0 0,-3.175 0,-6.35 0,-9.525 2.73403,0 5.46806,0 8.20209,0 0.11117,-4.43402 -0.26967,-9.670281 1.42831,-13.361458 3.43179,-5.484292 5.49531,-6.826302 17.50735,-6.057262 l 0.6435,0.1615 v 4.184153 4.18415 c -9.72666,-0.02152 -9.7429,4.421484 -9.84608,10.888921 3.21707,0 6.43415,0 9.65122,0 -0.45451,3.315494 -0.87884,6.818957 -1.21526,9.525 -2.79314,0 -5.58628,0 -8.37942,0 0,8.202082 0,16.404164 0,24.606246 -3.26319,0 -6.52639,0 -9.78958,0 -4e-5,-8.202083 -4e-5,-16.404167 -4e-5,-24.60625 z"
         id="path252"
         sodipodi:nodetypes="cccccccccccccccc" /><path
         style="fill:#395693;fill-opacity:1;stroke-width:0.264583"
         d="M 108.69649,-48.688456 C 106.9226,-49.770062 107.03,-47.757224 107.03,-79.92 c 0,-32.16278 -0.1074,-30.14994 1.66649,-31.23154 0.82657,-0.50399 1.55265,-0.51651 30.0305,-0.51747 32.22168,-0.001 30.20284,-0.10857 31.28455,1.6655 0.50403,0.82662 0.51648,1.55217 0.51648,30.08351 0,28.531341 -0.0125,29.256887 -0.51648,30.083509 -0.99712,1.635331 -1.19743,1.666491 -10.71319,1.666491 h -8.6121 c 0,-8.202083 0,-16.404167 0,-24.60625 2.79314,0 5.58628,0 8.37942,0 0.39849,-3.175835 0.77769,-6.35426 1.21526,-9.525 -3.21707,0 -6.43415,0 -9.65122,0 -1.29326,-9.376785 3.88089,-10.761304 9.84608,-10.888921 0,-2.789433 0,-5.578866 0,-8.368299 -20.928,-2.17919 -19.45241,11.698174 -19.57916,19.257216 -2.73403,0 -5.46806,0 -8.20209,0 0,3.175 0,6.35 0,9.525 2.73403,0 5.46806,0 8.20209,0 0,8.202085 0,16.404169 0,24.606254 l -15.67657,-0.0011 c -15.08155,-0.0011 -15.70871,-0.02058 -16.52361,-0.517467 z"
         id="path250"
         sodipodi:nodetypes="csscsscsccccccccccccccc" /></g></g></svg>
