<?xml version="1.0" encoding="UTF-8"?>
<svg width="250" height="250" version="1.1" viewBox="0 0 66.146 66.146" xml:space="preserve" xmlns="http://www.w3.org/2000/svg"><g transform="matrix(2.7275 0 0 2.7275 -45.206 -55.852)"><g stroke="#000" stroke-linecap="round"><path d="m28.046 25.665c-6.3244-4.3524-12.955 1.8531-7.8383 12.105 2.9808 6.9108 4.896 6.9676 8.3013 5.0932 2.4803 0.86408 4.2978 3.7879 8.4005-5.1263 4.1647-9.0297 2.8307-13.721-8.8635-12.072z" fill="#bad80a"/><path d="m28.542 26.26c7.2046 2.1419 9.4998-0.3739 9.8557-4.7294-6.7269-0.74777-9.9195 0.89126-9.8557 4.7294z" fill="#13a10e"/><path d="m27.616 22.721c-0.05037-1.7776 1.8751-1.5939 1.7198 0l-0.06615 3.7042c0.07467 1.0373-1.5537 1.2818-1.5875 0.03307z" fill="#8e562e"/></g><ellipse cx="24.226" cy="31.335" rx="3.0592" ry="2.9581" fill="#e4f577"/></g></svg>
