<?xml version="1.0" encoding="UTF-8"?>
<svg width="250" height="250" version="1.1" viewBox="0 0 66.146 66.146" xml:space="preserve" xmlns="http://www.w3.org/2000/svg"><g transform="translate(43.335 -.405)"><g transform="translate(230.25 19.474)"><g transform="translate(-15.083 -22.147)"><g transform="translate(72.474 66.244)"><g transform="translate(40.857 -.28638)"><g transform="translate(58.86,8.505)"><g transform="translate(40.666 3.8184)"><g transform="translate(58.708 -2.5774)"><g transform="translate(2.1956 4.1048)"><g transform="translate(33.22 2.1956)"><g transform="matrix(1.0831 0 0 1.0831 42.763 3.023)"><path d="m-548.41-42.031c-3.5054 13.508 13.499 21.926 21.432 11.56 15.685 18.295 35.652-5.9516 12.703-16.786 5.9882-14.537-14.378-24.441-21.696-11.575-15.948-16.152-33.476 8.4867-12.439 16.802z" fill="#190f0e" stroke="#000" stroke-linecap="round" stroke-linejoin="round" stroke-width="3.693" style="paint-order:stroke fill markers"/><g fill="#43322f"><circle cx="-542.3" cy="-52.453" r="6.4337" style="paint-order:stroke fill markers"/><circle cx="-533.43" cy="-36.058" r="6.4337" style="paint-order:stroke fill markers"/><circle cx="-513.06" cy="-33.958" r="6.4337" style="paint-order:stroke fill markers"/><circle cx="-521.97" cy="-53.918" r="6.4337" style="paint-order:stroke fill markers"/></g></g></g></g></g></g></g></g></g></g></g></g></svg>
