<?xml version="1.0" encoding="UTF-8" standalone="no"?>
<!-- Created with Inkscape (http://www.inkscape.org/) -->

<svg
   version="1.1"
   id="svg182"
   width="225"
   height="225"
   viewBox="0 0 225 225"
   sodipodi:docname="google.svg"
   inkscape:version="1.2-rc (6364d40632, 2022-05-08)"
   xmlns:inkscape="http://www.inkscape.org/namespaces/inkscape"
   xmlns:sodipodi="http://sodipodi.sourceforge.net/DTD/sodipodi-0.dtd"
   xmlns="http://www.w3.org/2000/svg"
   xmlns:svg="http://www.w3.org/2000/svg">
  <defs
     id="defs186" />
  <sodipodi:namedview
     id="namedview184"
     pagecolor="#505050"
     bordercolor="#eeeeee"
     borderopacity="1"
     inkscape:showpageshadow="0"
     inkscape:pageopacity="0"
     inkscape:pagecheckerboard="0"
     inkscape:deskcolor="#505050"
     showgrid="false"
     inkscape:zoom="1.5776338"
     inkscape:cx="158.7821"
     inkscape:cy="103.31929"
     inkscape:window-width="1366"
     inkscape:window-height="705"
     inkscape:window-x="546"
     inkscape:window-y="1132"
     inkscape:window-maximized="1"
     inkscape:current-layer="g300" />
  <g
     inkscape:groupmode="layer"
     inkscape:label="Image"
     id="g188">
    <g
       id="g300"
       transform="translate(-3.5856584,4.4820719)">
      <path
         style="fill:#f9ba05"
         d="m 24.16372,146.91542 c -1.050802,-2.3783 -3.123484,-8.37418 -4.605959,-13.32418 -3.620285,-12.08817 -4.567672,-34.812191 -1.983133,-47.567413 1.748121,-8.627332 4.784181,-18.387044 7.217203,-23.200403 l 1.399055,-2.767816 16.715107,12.694383 c 9.193309,6.98191 16.899836,12.837156 17.125615,13.011657 0.225779,0.1745 -0.174318,2.907545 -0.889105,6.073432 -1.661896,7.360759 -1.684332,20.3243 -0.04699,27.14951 1.543294,6.43318 2.649259,5.15843 -18.247831,21.03261 l -14.773415,11.22241 -1.91055,-4.32419 z"
         id="path308" />
      <path
         style="fill:#4184f2"
         d="m 169.43941,170.47575 -16.18168,-12.58077 6.2757,-5.87061 c 6.31629,-5.90858 11.48087,-14.06686 13.40992,-21.18313 l 1.01654,-3.75 h -27.4194 -27.41939 v -20 -20.000001 h 47.93873 47.93872 l 0.81128,4.75 c 1.47401,8.630351 0.73507,29.059141 -1.4199,39.254651 -3.74355,17.71132 -11.96722,34.18591 -22.76883,45.61313 l -6,6.34751 z"
         id="path306" />
      <path
         style="fill:#e84133"
         d="M 43.271821,73.090531 26.013699,59.943257 29.20992,54.267248 C 39.101885,36.700604 56.255969,21.05116 75.502267,12.035352 96.798048,2.0594776 123.72202,-0.01661456 146.43615,6.5656819 c 11.52689,3.3403624 18.28595,6.4646201 27.97303,12.9300461 14.01343,9.352957 14.36079,6.443989 -2.81531,23.576868 l -14.97277,14.935088 -5.80437,-3.843701 c -9.03916,-5.985798 -19.93145,-9.161545 -31.55503,-9.200149 -11.20505,-0.03721 -16.9606,1.17376 -26.6406,5.605217 -12.743023,5.833691 -24.009795,17.357283 -29.801633,30.480946 l -2.289524,5.187807 z"
         id="path304" />
      <path
         style="fill:#32a651"
         d="M 108.36665,208.02106 C 91.813071,206.41981 74.511098,200.23058 60.763728,190.99262 49.237022,183.2469 35.972445,168.92451 29.220379,156.93376 l -3.185762,-5.65747 17.153156,-13.14928 c 9.434236,-7.2321 17.242059,-13.01124 17.350717,-12.84252 0.108659,0.16871 1.610965,3.23175 3.33846,6.80675 7.163199,14.82403 20.689598,26.52651 36.39576,31.48808 14.54513,4.5948 32.44592,3.39488 47.03643,-3.15295 l 5.72742,-2.57032 3.82985,2.8676 c 14.6004,10.93203 28.25469,21.81962 28.25469,22.52959 0,1.19821 -11.23017,9.3096 -18.57868,13.41913 -15.89062,8.88653 -38.34532,13.26691 -58.17577,11.34869 z"
         id="path302" />
    </g>
  </g>
</svg>
