<?xml version="1.0" encoding="UTF-8" standalone="no"?>
<svg
   height="2500"
   viewBox="0 0 250 250"
   width="2500"
   version="1.1"
   id="svg22"
   sodipodi:docname="tiktok.svg"
   inkscape:version="1.2-rc (6364d40632, 2022-05-08)"
   xmlns:inkscape="http://www.inkscape.org/namespaces/inkscape"
   xmlns:sodipodi="http://sodipodi.sourceforge.net/DTD/sodipodi-0.dtd"
   xmlns="http://www.w3.org/2000/svg"
   xmlns:svg="http://www.w3.org/2000/svg">
  <defs
     id="defs26" />
  <sodipodi:namedview
     id="namedview24"
     pagecolor="#505050"
     bordercolor="#eeeeee"
     borderopacity="1"
     inkscape:showpageshadow="0"
     inkscape:pageopacity="0"
     inkscape:pagecheckerboard="0"
     inkscape:deskcolor="#505050"
     showgrid="false"
     inkscape:zoom="0.22"
     inkscape:cx="1225"
     inkscape:cy="1250"
     inkscape:window-width="1920"
     inkscape:window-height="1017"
     inkscape:window-x="1042"
     inkscape:window-y="-8"
     inkscape:window-maximized="1"
     inkscape:current-layer="g20" />
  <g
     clip-rule="evenodd"
     fill-rule="evenodd"
     id="g20">
    <path
       d="M25 0h200c13.808 0 25 11.192 25 25v200c0 13.808-11.192 25-25 25H25c-13.808 0-25-11.192-25-25V25C0 11.192 11.192 0 25 0z"
       fill="#010101"
       id="path2" />
    <path
       d="m 159.80336,103.00418 c 10.944,7.819 24.352,12.42 38.832,12.42 V 87.573182 a 39.26,39.26 0 0 1 -8.155,-0.853 v 21.922998 c -14.479,0 -27.885,-4.601 -38.832,-12.419998 v 56.834998 c 0,28.432 -23.06,51.479 -51.505,51.479 -10.612996,0 -20.477996,-3.207 -28.672996,-8.707 9.353,9.558 22.396,15.488 36.825996,15.488 28.447,0 51.508,-23.047 51.508,-51.48 v -56.834 z m 10.06,-28.097998 c -5.593,-6.107 -9.265,-14 -10.06,-22.726 v -3.582 h -7.728 c 1.945,11.09 8.58,20.565 17.788,26.308 z M 89.461364,174.01318 a 23.445,23.445 0 0 1 -4.806,-14.256 c 0,-13.004 10.548,-23.547 23.560996,-23.547 a 23.6,23.6 0 0 1 7.147,1.103 v -28.473 a 51.97,51.97 0 0 0 -8.152,-0.469 v 22.162 a 23.619,23.619 0 0 0 -7.15,-1.103 c -13.012996,0 -23.559996,10.543 -23.559996,23.548 0,9.195 5.272,17.157 12.96,21.035 z"
       fill="#ee1d52"
       id="path12" />
    <path
       d="m 151.64836,96.223182 c 10.947,7.818998 24.353,12.419998 38.832,12.419998 V 86.720182 c -8.082,-1.72 -15.237,-5.942 -20.617,-11.814 -9.208,-5.743 -15.843,-15.218 -17.788,-26.308 h -20.299 V 159.83718 c -0.046,12.968 -10.576,23.468 -23.561,23.468 -7.652,0 -14.449996,-3.645 -18.754996,-9.292 -7.688,-3.878 -12.96,-11.84 -12.96,-21.035 0,-13.005 10.547,-23.548 23.559996,-23.548 2.493,0 4.896,0.388 7.15,1.103 v -22.162 c -27.944996,0.577 -50.419996,23.399 -50.419996,51.467 0,14.011 5.597,26.713 14.68,35.993 8.195,5.5 18.06,8.707 28.672996,8.707 28.445,0 51.505,-23.048 51.505,-51.479 z"
       fill="#ffffff"
       id="path14" />
    <path
       d="m 190.48036,86.720182 v -5.928 a 38.84,38.84 0 0 1 -20.617,-5.887 38.948,38.948 0 0 0 20.617,11.815 z m -38.405,-38.122 a 39.524,39.524 0 0 1 -0.427,-3.198 v -3.582 h -28.028 V 153.05818 c -0.045,12.967 -10.574,23.467 -23.56,23.467 -3.812996,0 -7.411996,-0.904 -10.599996,-2.512 4.305,5.647 11.102996,9.292 18.754996,9.292 12.984,0 23.515,-10.5 23.561,-23.468 V 48.598182 Z m -44.864,59.772998 v -6.311 a 51.97,51.97 0 0 0 -7.067,-0.479 c -28.447996,0 -51.507996,23.048 -51.507996,51.477 0,17.824 9.063,33.532 22.835,42.772 -9.083,-9.28 -14.68,-21.982 -14.68,-35.993 0,-28.067 22.474,-50.889 50.419996,-51.466 z"
       fill="#69c9d0"
       id="path16" />
  </g>
</svg>
