<?xml version="1.0" encoding="UTF-8"?>
<svg width="250" height="250" version="1.1" viewBox="0 0 66.146 66.146" xml:space="preserve" xmlns="http://www.w3.org/2000/svg"><g transform="matrix(2.7183 0 0 2.7183 -48.449 -49.622)"><path d="m20.571 36.777c15.946 13.84 29.218-5.2998 14.089-16.867-8.9944-3.8533-20.303 8.8693-14.089 16.867z" fill="#8e562e" stroke="#000" stroke-linecap="round"/><ellipse transform="matrix(.77651 .63011 -.685 .72854 0 0)" cx="40.445" cy="4.4702" rx="7.6685" ry="10.488" fill="#8cbd18"/><ellipse transform="matrix(-.81838 .57468 -.44172 -.89715 0 0)" cx="-12.931" cy="-40.476" rx="3.7869" ry="3.109" fill="#e4f577" opacity=".61433"/><g><ellipse cx="31.623" cy="24.19" rx=".6782" ry=".65481"/><ellipse cx="33.366" cy="26.746" rx=".6782" ry=".65481"/><ellipse cx="32.558" cy="30.194" rx=".6782" ry=".65481"/><ellipse cx="29.931" cy="33.073" rx=".6782" ry=".65481"/><ellipse cx="25.877" cy="33.561" rx=".6782" ry=".65481"/><ellipse cx="23.543" cy="30.927" rx=".6782" ry=".65481"/><ellipse cx="24.349" cy="26.957" rx=".6782" ry=".65481"/><ellipse cx="27.689" cy="24.184" rx=".6782" ry=".65481"/></g></g></svg>
