<?xml version="1.0" encoding="UTF-8"?>
<svg width="250" height="250" version="1.1" viewBox="0 0 66.146 66.146" xml:space="preserve" xmlns="http://www.w3.org/2000/svg"><g stroke="#000" stroke-linecap="round" stroke-linejoin="round" stroke-width="5.8619"><path d="m32.405 24.174c-27.022-2.1275-21.074-2.3945-21.232-18.687 10.357 15.315 16.891-1.9537 21.232 18.687z" fill="#148b0f" style="paint-order:stroke fill markers"/><path d="m35.256 23.445c24.184-1.0643 14.974-4.0085 22.32-14.039-11.859 7.7806-18.617-3.0108-22.32 14.039z" fill="#20db17" style="paint-order:stroke fill markers"/><path d="m31.245 23.991 2.6859 0.22383c0.69711-3.6326 1.8248-10.962 8.8412-17.794l-3.5813-1.1191c-3.4129 5.9318-7.3196 10.17-7.9459 18.69z" fill="#106e0c" style="paint-order:stroke fill markers"/></g><g transform="translate(343.15 174.87)"/><g transform="translate(336.52 171.02)"/><g transform="translate(348.93 170.73)"/><g transform="translate(354.28 163.48)"/><g><path d="m27.169 21.018a7.7553 7.7553 0 0 0-5.853 2.6754 7.7553 7.7553 0 0 0-3.9955-1.1087 7.7553 7.7553 0 0 0-7.7554 7.7554 7.7553 7.7553 0 0 0 2.822 5.979 7.7553 7.7553 0 0 0-0.69551 3.1976 7.7553 7.7553 0 0 0 6.5673 7.6627 7.7553 7.7553 0 0 0-0.07632 1.0669 7.7553 7.7553 0 0 0 7.7554 7.7554 7.7553 7.7553 0 0 0 0.71005-0.03634 7.7553 7.7553 0 0 0 7.058 4.5517 7.7553 7.7553 0 0 0 7.195-4.8667 7.7553 7.7553 0 0 0 7.341-7.7396 7.7553 7.7553 0 0 0-0.05205-0.88997 7.7553 7.7553 0 0 0 6.3195-7.6154 7.7553 7.7553 0 0 0-0.85908-3.5466 7.7553 7.7553 0 0 0 2.4258-5.6307 7.7553 7.7553 0 0 0-7.7554-7.7554 7.7553 7.7553 0 0 0-3.6126 0.89907 7.7553 7.7553 0 0 0-5.564-2.3537 7.7553 7.7553 0 0 0-5.9857 2.8299 7.7553 7.7553 0 0 0-5.9893-2.8299z" fill="#db1739" stroke="#000" stroke-linecap="round" stroke-linejoin="round" stroke-width="5.8619" style="paint-order:stroke fill markers"/><path d="m26.777 21.182a5.1438 6.3156 0 0 0-5.1442 6.3153 5.1438 6.3156 0 0 0 5.1442 6.3159 5.1438 6.3156 0 0 0 5.1436-6.3159 5.1438 6.3156 0 0 0-5.1436-6.3153zm11.974 0a5.1438 6.3156 0 0 0-5.1436 6.3153 5.1438 6.3156 0 0 0 5.1436 6.3159 5.1438 6.3156 0 0 0 5.1436-6.3159 5.1438 6.3156 0 0 0-5.1436-6.3153zm-21.791 2.3119c-2.9522-0.06718-5.5924 3.5703-5.6555 6.1251 0.52664 5.1788 5.5551 8.4315 8.838 4.3905-1.9379-2.8399-1.9652-6.4043-0.21022-9.0361-0.96948-1.0228-1.9882-1.4571-2.9723-1.4795zm31.673 0.07515c-1.0115-0.0163-2.0831 0.3772-3.1146 1.2983 1.4618 3.1118 0.92239 6.635-1.2286 8.9543 3.1782 4.6557 8.632 0.13449 9.2566-3.2152 0.22273-3.8163-2.1168-6.9925-4.9134-7.0375zm-16.017 10.576c-1.3411 1.5822-3.2602 2.5613-5.3284 2.7184-0.67226 3.5282 2.1424 7.8124 4.9727 7.9177 3.9711-1.0711 5.6718-4.6022 4.9727-7.9141-1.8136-0.32978-3.4505-1.2948-4.6171-2.722zm-10.458 1.9714c-2.7459 3.0673-5.7593 2.965-9.3506 1.5619 0.0047 3.282 0.39518 7.7243 5.3635 7.8771 5.2259-0.35025 4.8782-5.8433 3.987-9.439zm19.997 0.67067c-0.57702 3.2308-0.9787 7.6727 3.884 8.7029 6.3245 0.41282 6.5634-5.1667 5.5956-8.5836-3.2457 2.5326-6.1936 1.8975-9.4796-0.11935zm-16.729 6.8975c-1.3412 1.5822-4.0278 3.2743-6.096 3.4315-0.67226 3.5282 3.1293 7.0993 5.9597 7.2047 3.9711-1.0711 5.8911-4.2732 5.1921-7.5851-1.8136-0.32978-3.8891-1.6238-5.0557-3.051zm14.641 0.21932c-1.3411 1.5822-3.1505 2.9999-5.2187 3.157-0.67226 3.5282 3.0202 6.6613 5.8506 6.7666 3.9711-1.0711 5.6718-3.6704 4.9727-6.9823-1.8136-0.32978-4.438-1.5141-5.6046-2.9414zm-7.0732 7.2931c-0.9573 2.1306-2.9864 4.5902-5.0545 4.7474 0.15025 0.34781 2.4713 3.3158 5.3017 3.4212 3.9711-1.0711 4.6438-3.4176 4.6438-3.4176-1.8136-0.32978-3.9437-2.0626-4.891-4.751z" fill="#ea4761" style="paint-order:stroke fill markers"/></g></svg>
